<svg width="163" height="163" viewBox="0 0 163 163" fill="none" xmlns="http://www.w3.org/2000/svg">
<circle opacity="0.12" cx="81.5" cy="81.5" r="81.5" fill="#FFBB38"/>
<path d="M128.14 45.6717C126.669 44.198 124.282 44.1955 122.811 45.6654L77.5978 90.7596L61.2849 73.0422C59.8753 71.5121 57.4921 71.4129 55.9595 72.8222C54.428 74.2318 54.33 76.6162 55.7395 78.1476L74.7095 98.7494C75.4042 99.5045 76.3765 99.9429 77.4017 99.9642C77.4292 99.9654 77.4558 99.9654 77.4821 99.9654C78.4784 99.9654 79.4368 99.5697 80.1429 98.8662L128.133 51.0019C129.608 49.5322 129.61 47.1453 128.14 45.6717Z" fill="#FFBB38"/>
<path d="M127.231 78.2311C125.149 78.2311 123.462 79.9182 123.462 82C123.462 105.415 104.415 124.462 81 124.462C57.5867 124.462 38.5377 105.415 38.5377 82C38.5377 58.5867 57.5867 39.5377 81 39.5377C83.0816 39.5377 84.7689 37.8506 84.7689 35.7689C84.7689 33.6871 83.0816 32 81 32C53.4297 32 31 54.4297 31 82C31 109.569 53.4297 132 81 132C108.569 132 131 109.569 131 82C131 79.9184 129.313 78.2311 127.231 78.2311Z" fill="#FFBB38"/>
</svg>
