<svg width="163" height="163" viewBox="0 0 163 163" fill="none" xmlns="http://www.w3.org/2000/svg">
<circle opacity="0.12" cx="81.5" cy="81.5" r="81.5" fill="#FFBB38"/>
<path d="M122.215 66.9783L133.394 55.7994C133.855 55.3392 134.071 54.6882 133.979 54.0436C133.888 53.3991 133.497 52.8346 132.926 52.5208L119.487 45.1413C118.485 44.5913 117.227 44.9577 116.676 45.9597C116.126 46.9625 116.491 48.2209 117.494 48.7708L128.515 54.8224L118.922 64.4154L84.416 45.468L94.009 35.875L103.706 41.2004C104.708 41.7503 105.968 41.3848 106.517 40.3819C107.068 39.3799 106.702 38.1208 105.699 37.5708L94.6398 31.4974C93.8327 31.0542 92.8299 31.1973 92.1797 31.8484L81 43.0281L69.8203 31.8484C69.1693 31.1973 68.1664 31.055 67.3602 31.4974L29.0738 52.5208C28.5029 52.8346 28.1122 53.3983 28.0209 54.0436C27.9287 54.6882 28.1454 55.3392 28.6064 55.7994L39.7853 66.9783L28.6064 78.1564C28.1454 78.6173 27.9287 79.2676 28.0209 79.9129C28.1122 80.5575 28.5029 81.1219 29.0738 81.4349L40.6433 87.7882V109.024C40.6433 109.78 41.055 110.475 41.7173 110.839L80.0037 131.862C80.3142 132.032 80.6571 132.117 81 132.117C81.3429 132.117 81.6858 132.032 81.9963 131.862L120.283 110.839C120.945 110.475 121.357 109.78 121.357 109.024V87.7882L132.926 81.4357C133.497 81.1219 133.888 80.5575 133.979 79.9129C134.071 79.2684 133.855 78.6173 133.394 78.1572L122.215 66.9783ZM81 85.6386L47.0152 66.9775L81 48.3155L114.985 66.9775L81 85.6386ZM67.9918 35.875L77.584 45.468L43.0784 64.4154L33.4854 54.8224L67.9918 35.875ZM43.08 69.5403L77.5856 88.4878L67.9918 98.0816L33.4854 79.1341L43.08 69.5403ZM117.216 107.799L83.0703 126.548V105.385C83.0703 104.242 82.1435 103.315 81 103.315C79.8565 103.315 78.9297 104.242 78.9297 105.385V126.548L44.784 107.799V90.0623L67.3602 102.459C67.6731 102.631 68.016 102.715 68.3557 102.715C68.8919 102.715 69.4224 102.506 69.8203 102.108L81 90.9285L92.1797 102.108C92.5776 102.507 93.1081 102.715 93.6443 102.715C93.984 102.715 94.3269 102.631 94.6398 102.459L117.216 90.0623V107.799ZM94.009 98.0816L84.4152 88.4869L118.921 69.5403L128.515 79.1333L94.009 98.0816Z" fill="#FFBB38"/>
<path d="M111.807 45.3565C112.351 45.3565 112.883 45.1349 113.27 44.7492C113.655 44.3642 113.877 43.8305 113.877 43.2862C113.877 42.7411 113.655 42.2074 113.27 41.8224C112.886 41.4367 112.351 41.2159 111.807 41.2159C111.26 41.2159 110.728 41.4367 110.343 41.8224C109.956 42.2074 109.736 42.7411 109.736 43.2862C109.736 43.8305 109.956 44.3642 110.343 44.7492C110.728 45.1349 111.262 45.3565 111.807 45.3565Z" fill="#FFBB38"/>
<path d="M81 96.4415C80.4557 96.4415 79.9212 96.6622 79.5362 97.048C79.1513 97.4346 78.9297 97.9667 78.9297 98.5118C78.9297 99.0577 79.1513 99.5898 79.5362 99.9772C79.9212 100.362 80.4557 100.582 81 100.582C81.5443 100.582 82.0788 100.362 82.4638 99.9772C82.8487 99.5898 83.0703 99.0577 83.0703 98.5118C83.0703 97.9667 82.8487 97.4346 82.4638 97.048C82.0788 96.6622 81.5443 96.4415 81 96.4415Z" fill="#FFBB38"/>
</svg>
