<svg width="77" height="112" viewBox="0 0 77 112" fill="none" xmlns="http://www.w3.org/2000/svg">
<path d="M5.25807 96.9749H11.4061C12.4578 96.9749 13.0645 97.8121 13.0645 98.7163C13.0645 99.4863 12.5387 100.39 11.4061 100.39H5.25807V107.121H16.7049C17.7566 107.121 18.3633 108.025 18.3633 109.063C18.3633 109.968 17.8375 110.939 16.7049 110.939H2.30548C1.13253 110.939 0 110.47 0 109.566V87.833C0 86.9289 1.13253 86.4601 2.30548 86.4601H16.7049C17.8375 86.4601 18.3633 87.4312 18.3633 88.3353C18.3633 89.3733 17.7566 90.2775 16.7049 90.2775H5.25807V96.9749Z" fill="#CC4646"/>
<path d="M30.3357 101.797L24.4302 110.403C24.1472 110.805 23.6214 111.106 22.9743 111.106C21.5588 111.106 19.5363 110.135 19.5363 108.93C19.5363 108.695 19.6575 108.427 19.86 108.126L26.8576 98.6827L20.1028 89.273C19.8603 88.9381 19.739 88.6366 19.739 88.3352C19.739 87.1633 21.5995 86.2926 23.0961 86.2926C23.905 86.2926 24.4715 86.661 24.8354 87.2302L30.3363 95.4345L35.8372 87.2302C36.2418 86.661 36.7676 86.2926 37.6169 86.2926C39.1132 86.2926 40.974 87.1633 40.974 88.3352C40.974 88.6366 40.8528 88.9381 40.6099 89.273L33.8552 98.6827L40.8528 108.126C41.0549 108.427 41.1357 108.695 41.1357 108.93C41.1357 110.135 39.154 111.106 37.6977 111.106C37.0506 111.106 36.5248 110.805 36.2819 110.403L30.3357 101.797Z" fill="#CC4646"/>
<path d="M44.1279 87.7993C44.1279 86.8617 45.4222 86.4601 46.7571 86.4601C48.0513 86.4601 49.3863 86.862 49.3863 87.7993V109.566C49.3863 110.47 48.0517 110.939 46.7571 110.939C45.4222 110.939 44.1279 110.47 44.1279 109.566V87.7993Z" fill="#CC4646"/>
<path d="M71.066 86.4601C72.1985 86.4601 72.7244 87.4649 72.7244 88.4023C72.7244 89.4403 72.1177 90.3779 71.066 90.3779H65.1608V109.566C65.1608 110.47 63.8259 110.939 62.5316 110.939C61.197 110.939 59.9024 110.47 59.9024 109.566V90.3779H53.9565C52.9048 90.3779 52.2982 89.4737 52.2982 88.4023C52.2982 87.4646 52.824 86.4601 53.9565 86.4601H71.066Z" fill="#CC4646"/>
<path d="M51.9301 17.1247C57.6419 17.1247 62.2723 13.2912 62.2723 8.56235C62.2723 3.83349 57.6419 0 51.9301 0C46.2182 0 41.5878 3.83349 41.5878 8.56235C41.5878 13.2912 46.2182 17.1247 51.9301 17.1247Z" fill="#CC4646"/>
<path d="M42.6573 22.1583L20.9232 27.8134C18.0572 28.559 15.8508 30.4662 15.0742 32.8686L12.9079 39.5706C12.101 42.0674 14.3736 44.5184 17.4952 44.5184H17.9581C20.1052 44.5184 21.9855 43.3256 22.5435 41.6089L24.8709 34.4522C25.1314 33.6507 25.8806 33.0211 26.8445 32.7932L32.6357 31.4232C33.4509 31.2305 34.201 31.8611 33.9551 32.533L23.7949 60.3121C23.4302 61.3097 22.3198 61.9916 21.0609 61.9916H8.01097C4.73253 61.9916 2.07507 64.1917 2.07507 66.9059C2.07507 69.6201 4.73284 71.8202 8.01097 71.8202H24.4879C28.4007 71.8202 31.8412 69.6765 32.9244 66.5639L36.3536 56.7094C37.0858 54.6052 40.581 54.384 41.6913 56.3714L54.727 79.1173C56.0978 81.5716 59.6604 82.5882 62.5668 81.3544C65.3313 80.1807 66.4689 77.4011 65.1355 75.078L47.4519 44.9698C47.2762 44.6638 47.2275 44.3181 47.3139 43.9869L47.9804 41.4257C48.5336 39.2998 51.9674 38.867 53.2598 40.7601L53.9014 41.7C55.4589 43.9814 58.3792 45.3921 61.5446 45.3921H72.2513C74.8742 45.3921 77 43.6319 77 41.4607C77 39.2893 74.8738 37.5293 72.2513 37.5293H62.6507C61.5802 37.5293 60.5993 37.0336 60.11 36.2454L53.7473 25.9951C52.1497 23.4215 48.9482 21.8035 45.4534 21.8035C44.505 21.803 43.5622 21.9227 42.6573 22.1583Z" fill="#CC4646"/>
</svg>
