<svg width="28" height="26" viewBox="0 0 28 26" fill="none" xmlns="http://www.w3.org/2000/svg">
<path d="M20.6534 25.6673C20.4329 25.6673 20.2077 25.6393 19.9847 25.581L1.94294 20.7496C0.551151 20.3657 -0.278368 18.9261 0.0856547 17.5353L2.06898 9.92973C2.19032 9.46295 2.66757 9.17947 3.13648 9.30444C3.60326 9.42578 3.8844 9.9041 3.76199 10.3719L1.77845 17.9788C1.65604 18.4477 1.93482 18.9318 2.4016 19.0602L20.4329 23.8893C20.8961 24.0117 21.3744 23.7363 21.4957 23.2755L22.1116 20.7904C22.2285 20.3215 22.7021 20.0367 23.171 20.1512C23.6401 20.2679 23.926 20.7415 23.8104 21.2104L23.1921 23.7073C22.8805 24.8891 21.8166 25.6673 20.6534 25.6673Z" fill="#222222"/>
<path d="M25.3749 18.6673H7.29108C5.84332 18.6673 4.66602 17.49 4.66602 16.0422V2.62507C4.66602 1.17731 5.84332 0 7.29108 0H25.3749C26.8227 0 28 1.17731 28 2.62507V16.0422C28 17.49 26.8227 18.6673 25.3749 18.6673ZM7.29108 1.75004C6.80807 1.75004 6.41606 2.14205 6.41606 2.62507V16.0422C6.41606 16.5252 6.80807 16.9172 7.29108 16.9172H25.3749C25.858 16.9172 26.25 16.5252 26.25 16.0422V2.62507C26.25 2.14205 25.858 1.75004 25.3749 1.75004H7.29108Z" fill="#222222"/>
<path d="M10.4995 8.16693C9.21258 8.16693 8.16602 7.12036 8.16602 5.83346C8.16602 4.54657 9.21258 3.5 10.4995 3.5C11.7864 3.5 12.8327 4.54657 12.8327 5.83346C12.8327 7.12036 11.7864 8.16693 10.4995 8.16693ZM10.4995 5.25004C10.1773 5.25004 9.91606 5.51153 9.91606 5.83346C9.91606 6.1554 10.1773 6.41688 10.4995 6.41688C10.8214 6.41688 11.0827 6.1554 11.0827 5.83346C11.0827 5.51153 10.8214 5.25004 10.4995 5.25004Z" fill="#222222"/>
<path d="M5.56454 17.4769C5.34065 17.4769 5.11656 17.3917 4.9463 17.2204C4.60449 16.8786 4.60449 16.3242 4.9463 15.9824L10.2197 10.709C11.0178 9.91085 12.3163 9.91085 13.1131 10.709L14.5237 12.1196L18.8567 6.91834C19.244 6.45391 19.8123 6.1856 20.4156 6.18218C21.0641 6.14608 21.5892 6.4411 21.98 6.89976L27.7879 13.6758C28.1028 14.0422 28.0596 14.5953 27.6932 14.9102C27.3258 15.2253 26.774 15.1821 26.4589 14.8158L20.6488 8.03733C20.5717 7.94504 20.4773 7.94974 20.4247 7.93329C20.3748 7.93329 20.2778 7.94846 20.2009 8.03947L15.2541 13.9781C15.0964 14.167 14.8668 14.2815 14.6217 14.2919C14.372 14.3058 14.1364 14.2101 13.9636 14.0364L11.8753 11.948C11.7271 11.7998 11.6047 11.7998 11.4564 11.948L6.18299 17.2204C6.01252 17.3917 5.78863 17.4769 5.56454 17.4769Z" fill="#222222"/>
</svg>
