<svg width="28" height="28" viewBox="0 0 28 28" fill="none" xmlns="http://www.w3.org/2000/svg">
<path d="M2.19741 19.7908C2.19741 18.207 2.20178 16.6233 2.19632 15.0395C2.19194 13.8208 2.68409 12.8644 3.67168 12.1529C6.4332 10.1647 9.19145 8.17214 11.9541 6.18505C13.3015 5.21665 14.697 5.21337 16.0488 6.18505C18.7983 8.16012 21.5368 10.1483 24.2874 12.1212C25.3133 12.8568 25.8109 13.835 25.8065 15.0974C25.7956 18.2278 25.8054 21.3593 25.8022 24.4907C25.8 26.5543 24.4023 27.9599 22.3483 27.9643C20.3808 27.9687 18.4133 27.9665 16.4458 27.9643C15.4757 27.9632 15.094 27.5774 15.0929 26.6046C15.0918 25.2941 15.0951 23.9836 15.0918 22.6731C15.0896 21.9101 14.6773 21.4314 14.0266 21.4161C13.3496 21.4008 12.911 21.8883 12.9088 22.6753C12.9045 24.0218 12.911 25.3695 12.9067 26.7161C12.9034 27.5369 12.4845 27.961 11.6621 27.9632C9.60376 27.9687 7.54547 27.9774 5.48718 27.961C3.63887 27.9468 2.21491 26.5062 2.20069 24.6525C2.18866 23.0305 2.19741 21.4106 2.19741 19.7908ZM23.617 19.7853C23.617 18.2202 23.6071 16.6539 23.6225 15.0887C23.6279 14.5651 23.4278 14.1902 23.0078 13.8897C20.2714 11.9288 17.5405 9.95921 14.8064 7.99507C14.1841 7.54803 13.8286 7.54475 13.2194 7.98196C10.471 9.95921 7.72811 11.943 4.97862 13.917C4.57396 14.2077 4.38913 14.575 4.39022 15.0734C4.39788 18.2223 4.39132 21.3724 4.39569 24.5213C4.39678 25.3433 4.82004 25.7608 5.64576 25.7663C7.1944 25.7761 8.74304 25.7608 10.2906 25.7881C10.6756 25.7947 10.7335 25.6537 10.7259 25.3203C10.7062 24.3924 10.7127 23.4633 10.7204 22.5353C10.7368 20.6761 12.1783 19.2257 14.0014 19.2268C15.8246 19.2279 17.2584 20.675 17.2759 22.5408C17.2846 23.4688 17.2923 24.3978 17.2704 25.3258C17.2628 25.6679 17.3371 25.7925 17.7123 25.787C19.2423 25.7641 20.7723 25.7805 22.3035 25.7761C23.2025 25.7739 23.6115 25.3695 23.6137 24.4798C23.6203 22.9168 23.617 21.3505 23.617 19.7853Z" fill="#797979"/>
<path d="M14.0114 0C14.7802 0.0273252 15.4462 0.280903 16.0543 0.718106C19.3058 3.05386 22.5595 5.38415 25.8132 7.71663C26.3753 8.11995 26.9429 8.51453 27.4952 8.92987C28.0552 9.35068 28.1525 9.93981 27.7709 10.4502C27.3629 10.9957 26.7581 11.0929 26.1905 10.6852C22.5518 8.07842 18.9154 5.46941 15.2778 2.8604C15.1302 2.75438 14.9825 2.64726 14.8327 2.54452C14.1481 2.07562 13.8396 2.06797 13.1517 2.55873C10.5597 4.4081 7.97318 6.26512 5.38555 8.11995C4.18798 8.97905 2.99478 9.84362 1.79393 10.6973C1.25038 11.0842 0.609483 10.9935 0.244196 10.4972C-0.154995 9.95511 -0.0631263 9.33756 0.507771 8.92768C4.36516 6.158 8.22692 3.39379 12.0876 0.628479C12.6683 0.213136 13.3191 0.0196741 14.0114 0Z" fill="#FFBB38"/>
</svg>
