<svg width="44" height="44" viewBox="0 0 44 44" fill="none" xmlns="http://www.w3.org/2000/svg">
<circle opacity="0.18" cx="22" cy="22" r="22" fill="#FFBB38"/>
<path d="M10.1974 26.7908C10.1974 25.207 10.2018 23.6233 10.1963 22.0395C10.1919 20.8208 10.6841 19.8644 11.6717 19.1529C14.4332 17.1647 17.1914 15.1721 19.9541 13.1851C21.3015 12.2166 22.697 12.2134 24.0488 13.1851C26.7983 15.1601 29.5368 17.1483 32.2874 19.1212C33.3133 19.8568 33.8109 20.835 33.8065 22.0974C33.7956 25.2278 33.8054 28.3593 33.8022 31.4907C33.8 33.5543 32.4023 34.9599 30.3483 34.9643C28.3808 34.9687 26.4133 34.9665 24.4458 34.9643C23.4757 34.9632 23.094 34.5774 23.0929 33.6046C23.0918 32.2941 23.0951 30.9836 23.0918 29.6731C23.0896 28.9101 22.6773 28.4314 22.0266 28.4161C21.3496 28.4008 20.911 28.8883 20.9088 29.6753C20.9045 31.0218 20.911 32.3695 20.9067 33.7161C20.9034 34.5369 20.4845 34.961 19.6621 34.9632C17.6038 34.9687 15.5455 34.9774 13.4872 34.961C11.6389 34.9468 10.2149 33.5062 10.2007 31.6525C10.1887 30.0305 10.1974 28.4106 10.1974 26.7908ZM31.617 26.7853C31.617 25.2202 31.6071 23.6539 31.6225 22.0887C31.6279 21.5651 31.4278 21.1902 31.0078 20.8897C28.2714 18.9288 25.5405 16.9592 22.8064 14.9951C22.1841 14.548 21.8286 14.5448 21.2194 14.982C18.471 16.9592 15.7281 18.943 12.9786 20.917C12.574 21.2077 12.3891 21.575 12.3902 22.0734C12.3979 25.2223 12.3913 28.3724 12.3957 31.5213C12.3968 32.3433 12.82 32.7608 13.6458 32.7663C15.1944 32.7761 16.743 32.7608 18.2906 32.7881C18.6756 32.7947 18.7335 32.6537 18.7259 32.3203C18.7062 31.3924 18.7127 30.4633 18.7204 29.5353C18.7368 27.6761 20.1783 26.2257 22.0014 26.2268C23.8246 26.2279 25.2584 27.675 25.2759 29.5408C25.2846 30.4688 25.2923 31.3978 25.2704 32.3258C25.2628 32.6679 25.3371 32.7925 25.7123 32.787C27.2423 32.7641 28.7723 32.7805 30.3035 32.7761C31.2025 32.7739 31.6115 32.3695 31.6137 31.4798C31.6203 29.9168 31.617 28.3505 31.617 26.7853Z" fill="#222222"/>
<path d="M22.0114 7C22.7802 7.02733 23.4462 7.2809 24.0543 7.71811C27.3058 10.0539 30.5595 12.3842 33.8132 14.7166C34.3753 15.12 34.9429 15.5145 35.4952 15.9299C36.0552 16.3507 36.1525 16.9398 35.7709 17.4502C35.3629 17.9957 34.7581 18.0929 34.1905 17.6852C30.5518 15.0784 26.9154 12.4694 23.2778 9.8604C23.1302 9.75438 22.9825 9.64726 22.8327 9.54452C22.1481 9.07562 21.8396 9.06797 21.1517 9.55873C18.5597 11.4081 15.9732 13.2651 13.3856 15.12C12.188 15.9791 10.9948 16.8436 9.79393 17.6973C9.25038 18.0842 8.60948 17.9935 8.2442 17.4972C7.84501 16.9551 7.93687 16.3376 8.50777 15.9277C12.3652 13.158 16.2269 10.3938 20.0876 7.62848C20.6683 7.21314 21.3191 7.01967 22.0114 7Z" fill="#FFBB38"/>
</svg>
