<svg width="176" height="149" viewBox="0 0 176 149" fill="none" xmlns="http://www.w3.org/2000/svg">
<path d="M84.6829 83.1242C99.6113 83.1242 111.711 95.2237 111.711 110.152C111.711 125.08 99.6113 137.18 84.6829 137.18C69.7541 137.18 57.655 125.08 57.655 110.152C57.655 95.2237 69.7541 83.1242 84.6829 83.1242Z" fill="white"/>
<path d="M158.301 12.108C164.522 12.108 169.563 17.1487 169.563 23.3696C169.563 29.5905 164.522 34.6312 158.301 34.6312C152.08 34.6312 147.04 29.5905 147.04 23.3696C147.04 17.1487 152.08 12.108 158.301 12.108Z" fill="#FFD400"/>
<path d="M9.00909 63.3238C13.9867 63.3238 18.0184 67.3555 18.0184 72.3331C18.0184 77.3107 13.9867 81.3424 9.00909 81.3424C4.03146 81.3424 -0.000198364 77.3107 -0.000198364 72.3331C-0.000198364 67.3555 4.03146 63.3238 9.00909 63.3238V63.3238Z" fill="#FFD400"/>
<path d="M154.848 71.5842C157.335 71.5842 159.353 73.6022 159.353 76.0888C159.353 78.5754 157.335 80.5935 154.848 80.5935C152.362 80.5935 150.344 78.5754 150.344 76.0888C150.344 73.6022 152.362 71.5842 154.848 71.5842Z" fill="#94D4FF"/>
<path d="M171.369 111.236C173.856 111.236 175.874 113.254 175.874 115.74C175.874 118.227 173.856 120.245 171.369 120.245C168.883 120.245 166.864 118.227 166.864 115.74C166.864 113.254 168.883 111.236 171.369 111.236Z" fill="#94D4FF"/>
<path d="M111.892 0.543457C114.379 0.543457 116.397 2.56154 116.397 5.0481C116.397 7.53467 114.379 9.55275 111.892 9.55275C109.406 9.55275 107.388 7.53467 107.388 5.0481C107.388 2.56154 109.406 0.543457 111.892 0.543457Z" fill="#94D4FF"/>
<path d="M103.632 139.322C106.119 139.322 108.137 141.34 108.137 143.826C108.137 146.313 106.119 148.331 103.632 148.331C101.145 148.331 99.1273 146.313 99.1273 143.826C99.1273 141.34 101.145 139.322 103.632 139.322Z" fill="#FAA71A"/>
<path d="M35.8949 96.3663C38.3815 96.3663 40.3995 98.3844 40.3995 100.871C40.3995 103.358 38.3815 105.376 35.8949 105.376C33.4079 105.376 31.3902 103.358 31.3902 100.871C31.3902 98.3844 33.4079 96.3663 35.8949 96.3663Z" fill="#FAA71A"/>
<path d="M40.8511 0.542908C43.3377 0.542908 45.3557 2.56099 45.3557 5.04755C45.3557 7.53412 43.3377 9.5522 40.8511 9.5522C38.3641 9.5522 36.3465 7.53412 36.3465 5.04755C36.3465 2.56099 38.3641 0.542908 40.8511 0.542908Z" fill="#94D4FF"/>
<path d="M17.721 26.9771C20.2076 26.9771 22.2257 28.9952 22.2257 31.4818C22.2257 33.9684 20.2076 35.9864 17.721 35.9864C15.234 35.9864 13.2164 33.9684 13.2164 31.4818C13.2164 28.9952 15.234 26.9771 17.721 26.9771Z" fill="#94D4FF"/>
<path d="M19.3731 114.54C21.8597 114.54 23.8777 116.558 23.8777 119.044C23.8777 121.531 21.8597 123.549 19.3731 123.549C16.8861 123.549 14.8684 121.531 14.8684 119.044C14.8684 116.558 16.8861 114.54 19.3731 114.54Z" fill="#94D4FF"/>
<path d="M127.91 68.3666L113.865 54.3221C113.519 53.9763 113.109 53.7019 112.657 53.5147C112.205 53.3276 111.721 53.2312 111.232 53.2312C110.742 53.2312 110.258 53.3276 109.806 53.5147C109.354 53.7019 108.944 53.9763 108.598 54.3221C107.9 55.0205 107.507 55.9677 107.507 56.9554C107.507 57.9431 107.9 58.8904 108.598 59.5888L116.285 67.2759H75.621C74.6333 67.2759 73.6861 67.6682 72.9876 68.3667C72.2892 69.0651 71.8969 70.0123 71.8969 71C71.8969 71.9877 72.2892 72.935 72.9876 73.6334C73.6861 74.3318 74.6333 74.7242 75.621 74.7242H116.285L108.598 82.4112C107.9 83.1097 107.507 84.0569 107.507 85.0447C107.507 86.0324 107.9 86.9796 108.598 87.678C109.297 88.3764 110.244 88.7688 111.232 88.7688C112.219 88.7688 113.167 88.3764 113.865 87.678L127.91 73.6333C128.608 72.9349 129 71.9876 129 70.9999C129 70.0122 128.608 69.065 127.91 68.3666Z" fill="#FFBB38"/>
<path d="M100.448 92.1034C99.4606 92.1034 98.5133 92.4958 97.8149 93.1942C97.1165 93.8926 96.7241 94.8399 96.7241 95.8276V99.5517H64.4483V42.4483H96.7241V46.1724C96.7241 47.1601 97.1165 48.1074 97.8149 48.8058C98.5133 49.5042 99.4606 49.8966 100.448 49.8966C101.436 49.8966 102.383 49.5042 103.082 48.8058C103.78 48.1074 104.172 47.1601 104.172 46.1724V41.2069C104.172 40.3918 104.012 39.5847 103.7 38.8316C103.388 38.0786 102.931 37.3943 102.354 36.818C101.778 36.2416 101.094 35.7844 100.341 35.4725C99.5877 35.1605 98.7806 35 97.9655 35H63.2069C61.5607 35 59.982 35.6539 58.818 36.818C57.6539 37.982 57 39.5607 57 41.2069V100.793C57 102.439 57.6539 104.018 58.818 105.182C59.982 106.346 61.5607 107 63.2069 107H97.9655C98.7806 107 99.5877 106.839 100.341 106.528C101.094 106.216 101.778 105.758 102.354 105.182C102.931 104.606 103.388 103.921 103.7 103.168C104.012 102.415 104.172 101.608 104.172 100.793V95.8276C104.172 94.8399 103.78 93.8926 103.082 93.1942C102.383 92.4958 101.436 92.1034 100.448 92.1034Z" fill="#FFBB38"/>
</svg>
