<svg width="104" height="35" viewBox="0 0 104 35" fill="none" xmlns="http://www.w3.org/2000/svg">
<path d="M9.88524 28.7462C7.6212 28.7462 5.71636 28.2455 4.17072 27.2441C2.62507 26.2209 1.53659 24.8385 0.905273 23.097L4.7585 20.8438C5.65105 23.1732 7.40351 24.3378 10.0159 24.3378C11.2785 24.3378 12.2037 24.1093 12.7915 23.6521C13.3793 23.1949 13.6732 22.618 13.6732 21.9214C13.6732 21.1159 13.314 20.4955 12.5956 20.0601C11.8772 19.6029 10.5928 19.1131 8.74234 18.5907C7.71917 18.2859 6.84838 17.9811 6.12998 17.6763C5.43335 17.3716 4.72584 16.9688 4.00744 16.4681C3.31082 15.9456 2.77746 15.2926 2.40738 14.5089C2.03729 13.7251 1.85225 12.8108 1.85225 11.7659C1.85225 9.69776 2.58153 8.05416 4.0401 6.83506C5.52043 5.59419 7.29466 4.97375 9.36277 4.97375C11.2132 4.97375 12.835 5.43092 14.2283 6.34524C15.6433 7.2378 16.7427 8.48955 17.5264 10.1005L13.7385 12.2883C12.8241 10.3291 11.3656 9.34945 9.36277 9.34945C8.42668 9.34945 7.68651 9.56715 7.14227 10.0025C6.6198 10.4162 6.35856 10.9604 6.35856 11.6353C6.35856 12.3537 6.65245 12.9414 7.24023 13.3986C7.84978 13.834 9.00357 14.3129 10.7016 14.8354C11.3982 15.0531 11.9207 15.2272 12.269 15.3579C12.6391 15.4667 13.1289 15.6518 13.7385 15.913C14.3698 16.1525 14.8487 16.381 15.1753 16.5987C15.5236 16.8164 15.9154 17.1103 16.3508 17.4804C16.7862 17.8505 17.1128 18.2315 17.3305 18.6233C17.5699 19.0152 17.7658 19.4941 17.9182 20.0601C18.0924 20.6043 18.1795 21.203 18.1795 21.8561C18.1795 23.9678 17.4066 25.644 15.861 26.8849C14.3371 28.1258 12.3452 28.7462 9.88524 28.7462Z" fill="#FFBB38"/>
<path d="M30.0006 11.5046C31.7857 11.5046 33.2552 12.1033 34.409 13.3006C35.5845 14.498 36.1723 16.1525 36.1723 18.2641V28.289H31.9599V18.7866C31.9599 17.6981 31.666 16.8709 31.0782 16.3048C30.4904 15.7171 29.7067 15.4232 28.7271 15.4232C27.6386 15.4232 26.7678 15.7606 26.1147 16.4355C25.4617 17.1103 25.1351 18.1226 25.1351 19.4723V28.289H20.9227V5.43092H25.1351V13.7905C26.1583 12.2666 27.7801 11.5046 30.0006 11.5046Z" fill="#FFBB38"/>
<path d="M53.6799 26.2644C52.0037 27.9189 49.9573 28.7462 47.5409 28.7462C45.1245 28.7462 43.0781 27.9189 41.4019 26.2644C39.7474 24.5882 38.9201 22.5418 38.9201 20.1254C38.9201 17.709 39.7474 15.6735 41.4019 14.019C43.0781 12.3428 45.1245 11.5046 47.5409 11.5046C49.9573 11.5046 52.0037 12.3428 53.6799 14.019C55.3562 15.6735 56.1943 17.709 56.1943 20.1254C56.1943 22.5418 55.3562 24.5882 53.6799 26.2644ZM44.3734 23.3582C45.2224 24.2072 46.2783 24.6317 47.5409 24.6317C48.8035 24.6317 49.8594 24.2072 50.7084 23.3582C51.5574 22.5092 51.9819 21.4316 51.9819 20.1254C51.9819 18.8192 51.5574 17.7416 50.7084 16.8926C49.8594 16.0436 48.8035 15.6191 47.5409 15.6191C46.2783 15.6191 45.2224 16.0436 44.3734 16.8926C43.5462 17.7416 43.1326 18.8192 43.1326 20.1254C43.1326 21.4316 43.5462 22.5092 44.3734 23.3582Z" fill="#FFBB38"/>
<path d="M68.6602 11.5046C70.8589 11.5046 72.7311 12.3428 74.2767 14.019C75.8441 15.6735 76.6278 17.709 76.6278 20.1254C76.6278 22.5418 75.8441 24.5882 74.2767 26.2644C72.7311 27.9189 70.8589 28.7462 68.6602 28.7462C66.3744 28.7462 64.611 27.9516 63.3701 26.3624V34.8199H59.1577V11.9618H63.3701V13.8884C64.611 12.2992 66.3744 11.5046 68.6602 11.5046ZM64.6437 23.4562C65.4927 24.3052 66.5703 24.7297 67.8764 24.7297C69.1826 24.7297 70.2602 24.3052 71.1092 23.4562C71.98 22.5854 72.4154 21.4751 72.4154 20.1254C72.4154 18.7757 71.98 17.6763 71.1092 16.8273C70.2602 15.9565 69.1826 15.5211 67.8764 15.5211C66.5703 15.5211 65.4927 15.9565 64.6437 16.8273C63.7946 17.6763 63.3701 18.7757 63.3701 20.1254C63.3701 21.4751 63.7946 22.5854 64.6437 23.4562Z" fill="#FFBB38"/>
<path d="M100.229 20.7822C97.9218 23.068 95.1135 24.2109 91.8045 24.2109C88.4955 24.2109 85.6872 23.068 83.3796 20.7822C81.0938 18.4746 79.9509 15.6554 79.9509 12.3247C79.9509 8.99394 81.0938 6.18566 83.3796 3.89985C85.6872 1.59227 88.4955 0.438477 91.8045 0.438477C95.1135 0.438477 97.9218 1.59227 100.229 3.89985C102.537 6.18566 103.691 8.99394 103.691 12.3247C103.691 15.6554 102.537 18.4746 100.229 20.7822ZM86.5471 17.7127C87.9621 19.1059 89.7146 19.8026 91.8045 19.8026C93.8944 19.8026 95.6468 19.1059 97.0619 17.7127C98.4769 16.2976 99.1844 14.5017 99.1844 12.3247C99.1844 10.1477 98.4769 8.35173 97.0619 6.93671C95.6468 5.52168 93.8944 4.81417 91.8045 4.81417C89.7146 4.81417 87.9621 5.52168 86.5471 6.93671C85.1321 8.35173 84.4246 10.1477 84.4246 12.3247C84.4246 14.5017 85.1321 16.2976 86.5471 17.7127Z" fill="#222222"/>
</svg>
