<svg width="375" height="464" fill="none" xmlns="http://www.w3.org/2000/svg">
    <circle cx="186" cy="232" r="232" fill="#FFBB38" fill-opacity=".06"/>
    <path opacity=".2" d="m184.547 128.535-7.917-2.157c.021-.491.035-.988.035-1.486 0-.406-.007-.812-.028-1.212l7.966-2.206a.24.24 0 0 0 .161-.267l-1.18-6.599a.229.229 0 0 0-.239-.196l-8.197.672a34.049 34.049 0 0 0-.913-2.529l6.743-4.798a.221.221 0 0 0 .056-.302l-3.371-5.8a.23.23 0 0 0-.295-.098l-7.516 3.446c-.548-.7-1.117-1.38-1.714-2.031l4.727-6.859a.227.227 0 0 0-.049-.308l-5.155-4.302a.228.228 0 0 0-.309.007l-5.929 5.857a32.82 32.82 0 0 0-2.276-1.31l2.108-8.126a.229.229 0 0 0-.155-.274l-6.322-2.283a.23.23 0 0 0-.288.112l-3.603 7.6a33.812 33.812 0 0 0-2.543-.434l-.814-8.448a.229.229 0 0 0-.232-.204l-6.722.014a.219.219 0 0 0-.232.204l-.787 8.462c-.843.12-1.671.267-2.493.442v-.014l-3.695-7.728a.232.232 0 0 0-.288-.112l-6.315 2.305a.221.221 0 0 0-.147.274l2.177 8.28c0 .007.007.014.007.021-.744.392-1.468.813-2.177 1.261-.007-.028-.028-.056-.049-.084l-6.125-6.004a.228.228 0 0 0-.309-.007l-5.142 4.316a.237.237 0 0 0-.049.308l4.889 7.041a.199.199 0 0 0 .07.063 33.176 33.176 0 0 0-1.63 1.94.199.199 0 0 0-.112-.126l-7.811-3.552a.233.233 0 0 0-.295.105l-3.35 5.815a.227.227 0 0 0 .056.301l7.003 4.946a.216.216 0 0 0 .126.035c-.33.792-.625 1.598-.885 2.424a.205.205 0 0 0-.168-.119l-8.556-.672a.224.224 0 0 0-.238.196l-1.159 6.606c-.029.112.049.231.161.266l8.282 2.263a.193.193 0 0 0 .154-.021 31.893 31.893 0 0 0-.014 2.599.202.202 0 0 0-.211-.07l-8.274 2.291c-.112.028-.183.154-.162.266l1.18 6.6a.23.23 0 0 0 .239.196l8.556-.701a.236.236 0 0 0 .119-.056c.253.82.548 1.626.864 2.41a.195.195 0 0 0-.183.028l-6.989 4.974a.222.222 0 0 0-.056.301l3.372 5.801a.23.23 0 0 0 .295.098l7.796-3.58a.186.186 0 0 0 .071-.056 32.583 32.583 0 0 0 1.608 1.948.204.204 0 0 0-.112.077l-4.861 7.055a.23.23 0 0 0 .049.308l5.156 4.301a.228.228 0 0 0 .309-.007l6.104-6.025c.007-.007.007-.014.014-.014.702.456 1.426.883 2.163 1.282-.007.014-.021.029-.021.05l-2.149 8.287a.228.228 0 0 0 .155.273l6.321 2.284a.229.229 0 0 0 .288-.112l3.639-7.678a32.7 32.7 0 0 0 2.5.469l.822 8.491c.014.119.119.21.232.203l6.722-.014a.22.22 0 0 0 .232-.203l.779-8.365a34.316 34.316 0 0 0 2.564-.413l3.639 7.615a.231.231 0 0 0 .288.112l6.314-2.304a.222.222 0 0 0 .148-.274l-2.114-8.042c.786-.4 1.552-.834 2.296-1.296l5.978 5.856a.226.226 0 0 0 .309.007l5.142-4.315a.237.237 0 0 0 .049-.308l-4.706-6.782a34.411 34.411 0 0 0 1.742-2.024l7.565 3.439c.105.049.238 0 .295-.105l3.35-5.814a.229.229 0 0 0-.056-.302l-6.708-4.735c.344-.827.66-1.668.941-2.529l8.239.644a.224.224 0 0 0 .239-.196l1.159-6.606a.235.235 0 0 0-.168-.253Zm-40.494-29.227c3.406 0 6.651.658 9.623 1.863l-3.344 5.591a19.19 19.19 0 0 0-6.279-1.051c-2.669 0-5.205.546-7.516 1.527l-3.4-5.499a25.488 25.488 0 0 1 10.916-2.431Zm-16.802 6.256 3.435 5.555a19.097 19.097 0 0 0-5.584 10.558l-6.498.028c.801-6.424 3.983-12.106 8.647-16.141Zm.478 39.049c-4.763-3.923-8.078-9.534-9.033-15.91l6.511-.021a19.152 19.152 0 0 0 5.865 10.341l-3.343 5.59Zm16.324 5.857c-3.688 0-7.186-.771-10.354-2.172l3.323-5.562a19.205 19.205 0 0 0 7.031 1.331c2.219 0 4.362-.378 6.349-1.072l3.435 5.549a25.692 25.692 0 0 1-9.784 1.926Zm11.175-22.355a11.773 11.773 0 0 1-2.725 4.484 11.752 11.752 0 0 1-6.175 3.355c-.737.14-1.496.218-2.268.218a11.762 11.762 0 0 1-9.026-4.218 11.656 11.656 0 0 1-2.733-7.51c0-1.128.162-2.214.457-3.244a11.732 11.732 0 0 1 2.016-3.944 11.75 11.75 0 0 1 9.293-4.546 11.755 11.755 0 0 1 8.478 3.614 11.779 11.779 0 0 1 2.802 4.799 11.56 11.56 0 0 1 .485 3.328 12.182 12.182 0 0 1-.604 3.664Zm4.664 16.891-3.407-5.507c3.266-2.767 5.598-6.606 6.441-10.964l6.512-.021c-.942 6.67-4.475 12.512-9.546 16.492Zm3.098-23.469a19.174 19.174 0 0 0-6.554-11.307l3.323-5.563c5.204 4.021 8.815 10.004 9.721 16.842l-6.49.028Z" fill="#FFBB38"/>
    <path d="M275.569 342.065h-105.48c-10.094 0-18.347-8.232-18.347-18.299V133.282c0-10.067 8.253-18.298 18.347-18.298h105.48c10.087 0 18.347 8.231 18.347 18.298v190.484c0 10.06-8.253 18.299-18.347 18.299Z" fill="#1054C6"/>
    <path d="M283.83 342.065H178.349c-10.093 0-18.347-8.232-18.347-18.299V133.282c0-10.067 8.254-18.299 18.347-18.299H283.83c10.094 0 18.347 8.232 18.347 18.299v190.484c-.007 10.06-8.26 18.299-18.347 18.299Z" fill="#2876F9"/>
    <path d="M280.936 310.574h-99.405a3.852 3.852 0 0 1-3.856-3.846v-138.46a3.853 3.853 0 0 1 3.856-3.846h99.405a3.853 3.853 0 0 1 3.856 3.846v138.453a3.854 3.854 0 0 1-3.856 3.853Z" fill="#D1EFFC"/>
    <path d="M269.733 289.733H191.26c-.977 0-1.77-.799-1.77-1.766 0-.974.8-1.765 1.77-1.765h78.466c.976 0 1.77.798 1.77 1.765a1.76 1.76 0 0 1-1.763 1.766ZM269.733 297.249H191.26c-.977 0-1.77-.798-1.77-1.765 0-.974.8-1.765 1.77-1.765h78.466c.976 0 1.77.798 1.77 1.765a1.763 1.763 0 0 1-1.763 1.765Z" fill="#7AB0F6"/>
    <path d="m173.699 125.471-13.065 48.942h22.744l8.934-48.942h-18.613Z" fill="#FFBB38"/>
    <path d="m192.313 125.471-8.935 48.941 22.751-.245 5.05-48.696h-18.866Z" fill="#fff"/>
    <path d="m211.179 125.471-5.051 48.696h22.744l.134-48.696h-17.827Z" fill="#FFBB38"/>
    <path d="M285.339 125.471h-17.314l6.35 48.696h22.744l-11.78-48.696ZM229.006 125.471l-.133 48.696h22.751l-3.224-48.696h-19.394Z" fill="#fff"/>
    <path d="m248.399 125.471 3.224 48.696h22.751l-6.35-48.696h-19.625Z" fill="#FFBB38"/>
    <path d="M172.006 185.754c6.279 0 11.372-5.079 11.372-11.342h-22.751c.007 6.263 5.099 11.342 11.379 11.342Z" fill="#E9A522"/>
    <path d="M194.756 185.755c6.28 0 11.372-5.325 11.372-11.595l-22.751.245c0 6.271 5.093 11.35 11.379 11.35Z" fill="#B9DDFF"/>
    <path d="M217.571 185.51c6.279 0 11.372-5.079 11.372-11.342h-22.751c0 6.263 5.092 11.342 11.379 11.342Z" fill="#E9A522"/>
    <path d="M240.252 185.51c6.28 0 11.372-5.079 11.372-11.342h-22.751c0 6.263 5.093 11.342 11.379 11.342Z" fill="#B9DDFF"/>
    <path d="M262.996 185.51c6.279 0 11.372-5.079 11.372-11.342h-22.751c.007 6.263 5.099 11.342 11.379 11.342Z" fill="#E9A522"/>
    <path d="M285.747 185.51c6.28 0 11.372-5.079 11.372-11.342h-22.751c.007 6.263 5.1 11.342 11.379 11.342Z" fill="#B9DDFF"/>
    <path d="M132.826 136.61c-40.312 2.046-61.882 38.293-61.882 38.293L93.7 208.04c11.267-24.415 54.374-34.167 54.374-34.167l11.077-29.193-26.326-8.07Zm13.619 18.929a4.675 4.675 0 0 1-5.717-3.32 4.662 4.662 0 0 1 3.329-5.703 4.677 4.677 0 0 1 5.718 3.321 4.672 4.672 0 0 1-3.33 5.702Z" fill="#FE799A"/>
    <path d="M146.256 140.162c-1.019 1.597-1.876 3.419-2.178 5.457a10.48 10.48 0 0 0-.021 3.104 11.22 11.22 0 0 0 .864 2.991c1.026 2.291 2.831 2.971 2.999 3.048-.112.126 1.876-1.044 1.946-3.307-.246-.126-1.166-.799-1.419-1.359a7.805 7.805 0 0 1-.555-1.92 6.672 6.672 0 0 1 0-2.01c.176-1.359.731-2.74 1.518-4.036 1.58-2.627 3.947-4.883 6.588-6.816 5.359-3.902 11.52-6.768 18.207-8.484-6.919.049-13.894 2.214-19.935 5.913-3.055 1.835-5.907 4.259-8.014 7.419Z" fill="#B9DDFF"/>
    <path d="M169.667 129.415c-1.384 1.093-2.613 2.389-3.723 3.769-1.082 1.402-2.072 2.887-2.901 4.463-.225.392-.421.785-.604 1.128-.19.357-.386.714-.597 1.065-.414.7-2.697 4.68-2.739 4.848-.218.924-2.508 6.557-2.564 6.9a1.415 1.415 0 0 1-.092.323 29.81 29.81 0 0 0 3.66-3.952 36.47 36.47 0 0 0 2.985-4.427c.443-.771.864-1.555 1.258-2.368.386-.785.758-1.696 1.046-2.424.576-1.548 1.321-3.027 2.157-4.456a24.414 24.414 0 0 1 2.879-4.07c1.103-1.261 2.325-2.452 3.779-3.377-1.657.533-3.16 1.499-4.544 2.578Z" fill="#B9DDFF"/>
    <path d="M224.771 240.707h-37.706c-2.121 0-3.863-1.731-3.863-3.853v-37.607c0-2.115 1.735-3.853 3.863-3.853h37.706c2.121 0 3.863 1.731 3.863 3.853v37.607a3.865 3.865 0 0 1-3.863 3.853ZM275.225 240.707h-37.706c-2.121 0-3.863-1.731-3.863-3.853v-37.607c0-2.115 1.735-3.853 3.863-3.853h37.706c2.121 0 3.863 1.731 3.863 3.853v37.607a3.874 3.874 0 0 1-3.863 3.853Z" fill="#fff"/>
    <path d="M204.682 272.835c-1.827 0-3.309-2.088-3.309-4.645 0-2.564 1.482-4.644 3.309-4.644h52.378c1.827 0 3.309 2.087 3.309 4.644 0 2.564-1.482 4.645-3.309 4.645h-52.378Z" fill="#FFBB38"/>
    <path d="M221.16 249.828a2.273 2.273 0 0 1-2.276 2.27 2.273 2.273 0 0 1-2.276-2.27 2.273 2.273 0 0 1 2.276-2.27 2.273 2.273 0 0 1 2.276 2.27ZM229.976 252.098a2.273 2.273 0 0 0 2.276-2.27 2.273 2.273 0 0 0-2.276-2.27 2.273 2.273 0 0 0-2.276 2.27 2.273 2.273 0 0 0 2.276 2.27Z" fill="#FE799A"/>
    <path d="M240.252 252.098a2.273 2.273 0 0 0 2.276-2.27 2.273 2.273 0 0 0-2.276-2.27 2.273 2.273 0 0 0-2.276 2.27 2.273 2.273 0 0 0 2.276 2.27Z" fill="#F7456A"/>
    <path d="M191.28 227.74h15.438l8.064-6.221s1.229 2.396 1.229 6.221h1.532s3.61-11.665-1.918-15.49l-12.65 10.495s-10.354-1.703-11.695 4.995Z" fill="#E962C5"/>
    <path d="M260.502 219.648v-7.811h3.056v-4.624a3.054 3.054 0 0 0-3.056-3.047h-2.746a3.205 3.205 0 0 1-3.21 3.201 3.205 3.205 0 0 1-3.21-3.201H248.583a2.883 2.883 0 0 0-2.887 2.879v4.792h3.006l.119 8.064-6.37 10.109a37.655 37.655 0 0 0 12.074 1.94 37.488 37.488 0 0 0 11.723-1.94c-1.917-3.461-3.835-6.908-5.746-10.362Z" fill="#FFBB38"/>
    <path d="M262.87 327.591h-60.274a2.132 2.132 0 0 1-2.135-2.13v-.98c0-1.177.955-2.13 2.135-2.13h60.274c1.18 0 2.135.953 2.135 2.13v.98a2.127 2.127 0 0 1-2.135 2.13ZM99.616 184.746c-1.735 1.682-2.957 2.396-4.004 2.838L94.074 186c.948-.224 2.606-1.078 4.27-2.69 2.157-2.087 2.016-3.65 1.167-4.518-.879-.904-2.01-1.03-4.812.168-3.371 1.45-5.261 1.387-6.848-.246-1.792-1.842-1.672-4.721 1.081-7.39 1.314-1.268 2.634-1.983 3.21-2.228l1.37 1.408c-1.145.665-2.304 1.415-3.294 2.375-1.848 1.786-1.658 3.208-.998 3.888 1.054 1.079 1.77 1.233 4.854-.056 3.084-1.289 5.163-1.548 6.926.259 2.086 2.13 1.629 4.862-1.384 7.776ZM113.502 173.278l-3.631-2.704-5.121 3.614 1.335 4.33-1.918 1.352-5.233-16.631 2.304-1.626 14.182 10.306-1.918 1.359Zm-12.116-9.038 2.711 8.211s4.27-3.019 4.256-3.005l-6.967-5.206ZM116.558 171.526l-7.045-15.027 2.17-1.008 6.265 13.359 6.196-2.893.786 1.674-8.372 3.895ZM126.364 167.19l-3.779-16.155 9.518-2.214.421 1.801-7.256 1.688 1.236 5.282 5.823-1.352.415 1.773-5.823 1.352 1.292 5.527 7.586-1.765.415 1.772-9.848 2.291Z" fill="#fff"/>
    <path d="m151.425 256.133-92.142-1.856A2.33 2.33 0 0 1 57 251.909l1.194-58.96a2.332 2.332 0 0 1 2.375-2.277l92.141 1.857a2.33 2.33 0 0 1 2.283 2.368l-1.194 58.959a2.326 2.326 0 0 1-2.374 2.277Z" fill="#FFBB38"/>
    <path d="m143.699 250.873-76.163-1.535c-3.23-.063-5.802-2.732-5.731-5.954l.843-41.887c.063-3.223 2.739-5.787 5.97-5.717l76.162 1.534c3.231.063 5.802 2.733 5.732 5.955l-.85 41.887a5.835 5.835 0 0 1-5.963 5.717Z" fill="#fff"/>
    <path d="m95.028 206.807-27.541-.554a1.455 1.455 0 0 1-1.426-1.478l.07-3.313a1.456 1.456 0 0 1 1.482-1.423l27.542.554c.8.014 1.44.679 1.426 1.478l-.07 3.314a1.456 1.456 0 0 1-1.483 1.422ZM123.701 232.294l-55.757-1.121a1.048 1.048 0 0 1-1.026-1.065l.05-2.389a1.048 1.048 0 0 1 1.067-1.023l55.757 1.121c.576.014 1.04.49 1.026 1.065l-.05 2.389a1.048 1.048 0 0 1-1.067 1.023Z" fill="#E7EFFE"/>
    <path d="m123.539 240.273-55.757-1.128a1.048 1.048 0 0 1-1.025-1.065l.049-2.389a1.048 1.048 0 0 1 1.067-1.023l55.758 1.121a1.048 1.048 0 0 1 1.025 1.065l-.049 2.389a1.054 1.054 0 0 1-1.068 1.03Z" fill="#FFBB38"/>
    <path d="m144.211 251.993-77.553-1.562c-3.308-.07-5.942-2.802-5.88-6.095l.886-43.631c.063-3.293 2.81-5.92 6.118-5.857l77.553 1.562c3.308.07 5.942 2.803 5.879 6.095l-.885 43.632c-.063 3.299-2.81 5.926-6.118 5.856Zm-76.457-55.779c-2.55-.049-4.664 1.976-4.72 4.512l-.886 43.631a4.62 4.62 0 0 0 4.531 4.701l77.553 1.562c2.55.049 4.664-1.975 4.72-4.511l.885-43.632a4.62 4.62 0 0 0-4.53-4.701l-77.553-1.562Z" fill="#222"/>
    <path d="m86.067 222.92-15.678-.315a3.049 3.049 0 0 1-2.978-3.097l.12-6.046a3.049 3.049 0 0 1 3.104-2.97l15.678.315a3.048 3.048 0 0 1 2.978 3.097l-.12 6.045a3.049 3.049 0 0 1-3.104 2.971Z" fill="#FAD553"/>
    <path d="M137.926 216.32a.633.633 0 0 1-.471-.217.632.632 0 0 1 .056-.897c1.96-1.716 3.07-4.021 3.119-6.487.049-2.466-.962-4.813-2.852-6.606a.64.64 0 1 1 .885-.925c2.15 2.046 3.309 4.729 3.245 7.559-.056 2.831-1.32 5.465-3.547 7.419a.639.639 0 0 1-.435.154Z" fill="#E7EFFE"/>
    <path d="M136.114 214.604a.66.66 0 0 1-.471-.217.633.633 0 0 1 .057-.897c1.454-1.275 2.275-2.984 2.317-4.82.036-1.835-.716-3.572-2.121-4.911a.638.638 0 0 1-.021-.903.644.644 0 0 1 .906-.021c1.665 1.583 2.564 3.664 2.515 5.856-.042 2.193-1.019 4.239-2.754 5.752a.65.65 0 0 1-.428.161Z" fill="#E7EFFE"/>
    <path d="M134.301 212.881a.64.64 0 0 1-.414-1.121c.955-.834 1.489-1.955 1.517-3.153.021-1.197-.47-2.339-1.391-3.208a.641.641 0 0 1-.021-.904.644.644 0 0 1 .906-.021c1.181 1.121 1.82 2.599 1.785 4.162-.029 1.555-.724 3.005-1.953 4.084a.62.62 0 0 1-.429.161Z" fill="#E7EFFE"/>
    <path d="M132.489 211.157a.64.64 0 0 1-.414-1.12c.449-.393.702-.918.716-1.486.014-.56-.217-1.1-.653-1.513a.64.64 0 1 1 .885-.925 3.293 3.293 0 0 1 1.054 2.459c-.021.925-.429 1.78-1.152 2.417a.594.594 0 0 1-.436.168Z" fill="#E7EFFE"/>
    <path d="m116.881 290.608-8.935 47.912h13.03l-4.095-47.912Z" fill="#55B4BD"/>
    <path d="M120.976 338.52h29.417l-3.351-47.912h-30.161l4.095 47.912Z" fill="#81CFD0"/>
    <path d="M125.541 295.715a1.629 1.629 0 0 1-3.259 0 1.63 1.63 0 0 1 3.259 0ZM142.899 295.715a1.63 1.63 0 0 1-3.259 0 1.63 1.63 0 0 1 3.259 0Z" fill="#B2E5FA"/>
    <path d="M135.41 280.106c-1.215-1.142-2.445-1.758-3.505-1.758-.049 0-.092 0-.141.007-3.709.182-7.93 7.363-8.042 17.36 0 .105.084.189.182.189a.192.192 0 0 0 .19-.182c.112-9.514 4.151-16.821 7.691-16.996h.127c.906 0 1.938.484 2.978 1.387h.52v-.007ZM137.376 282.495h-.407c1.988 2.921 3.68 7.44 4.116 13.234a.19.19 0 0 0 .183.175h.014c.105-.007.182-.098.168-.196-.421-5.731-2.086-10.229-4.074-13.213Z" fill="#55B4BD"/>
    <path d="m278.625 321.51-11.112 47.478h16.212l-5.1-47.478Z" fill="#FFBB38"/>
    <path d="M283.718 368.995h36.581l-4.165-47.485h-37.508l5.092 47.485Z" fill="#FFD88D"/>
    <path d="M289.393 326.575c0 .89-.906 1.612-2.023 1.612s-2.023-.722-2.023-1.612c0-.889.906-1.611 2.023-1.611 1.109 0 2.023.722 2.023 1.611ZM310.985 326.575c0 .89-.906 1.612-2.023 1.612s-2.023-.722-2.023-1.612c0-.889.906-1.611 2.023-1.611 1.11 0 2.023.722 2.023 1.611Z" fill="#F7456A"/>
    <path d="M301.602 311.1s-1.932-1.801-4.299-1.738c-.056 0-.113 0-.169.007-4.615.183-9.862 7.293-10.002 17.206 0 .105.098.182.232.189.126 0 .232-.084.232-.182.14-9.429 5.162-16.666 9.559-16.841h.162c1.131 0 2.416.483 3.709 1.373 4.664 4 7.164 9.801 7.698 15.482.007.098.112.168.232.168h.021c.126-.007.225-.098.211-.196-.534-5.681-2.937-11.566-7.586-15.468Z" fill="#F96A88"/>
</svg>
