<svg width="375" height="464" fill="none" xmlns="http://www.w3.org/2000/svg">
    <circle cx="186" cy="232" r="232" fill="#FFBB38" fill-opacity=".06"/>
    <g clip-path="url(#a)">
        <path d="M282.787 83.456a5.169 5.169 0 0 1-10.335-.01 5.162 5.162 0 0 1 5.172-5.163 5.176 5.176 0 0 1 5.163 5.173ZM171.454 378.527a5.163 5.163 0 0 1-5.173 5.163 5.163 5.163 0 0 1-5.163-5.173 5.163 5.163 0 0 1 5.173-5.163 5.17 5.17 0 0 1 5.163 5.173ZM273.74 388.089c-3.965 0-7.186-3.231-7.186-7.197 0-3.965 3.231-7.186 7.196-7.186 1.922 0 3.723.755 5.082 2.104a7.13 7.13 0 0 1 2.103 5.082c-.01 3.966-3.23 7.197-7.195 7.197Zm0-13.125a5.932 5.932 0 0 0-5.928 5.928 5.932 5.932 0 0 0 5.928 5.928 5.93 5.93 0 0 0 5.927-5.928c0-1.58-.614-3.069-1.731-4.196a5.945 5.945 0 0 0-4.196-1.732Z" fill="#fff"/>
        <path d="M168.304 195.414h-91.62a4.115 4.115 0 0 1-4.115-4.117v-55.002a4.103 4.103 0 0 1 4.106-4.106h91.619a4.104 4.104 0 0 1 4.106 4.106v55.002a4.098 4.098 0 0 1-4.096 4.117Z" fill="#9EB9EE"/>
        <path d="m166.382 132.178-31.781 63.236h-31.61l31.781-63.236h31.61Z" fill="url(#b)"/>
        <path d="m119.717 132.189-31.55 63.225H77.43a4.864 4.864 0 0 1-4.861-4.861v-22.112l19.835-36.252h27.313Z" fill="url(#c)"/>
        <path d="M95.514 167.173H85.319a2.019 2.019 0 0 1-2.012-2.013v-8.968c0-1.107.905-2.012 2.012-2.012h10.195c1.107 0 2.013.905 2.013 2.012v8.968a2.006 2.006 0 0 1-2.013 2.013Z" fill="#FFE7C9"/>
        <path d="M87.735 154.18h-.332v12.993h.332V154.18ZM93.491 167.173h-.332v-9.934h4.367v.332h-4.035v9.602Z" fill="#E8CB83"/>
        <path d="M87.564 157.239h-4.257v.332h4.257v-.332ZM87.564 160.309h-4.257v.342h4.257v-.342ZM87.564 163.258h-4.257v.332h4.257v-.332ZM97.526 160.309H93.32v.342h4.207v-.342ZM97.526 163.258H93.32v.332h4.207v-.332Z" fill="#E8CB83"/>
        <path d="M163.805 156.021c-.1 0-.201-.03-.281-.1a.441.441 0 0 1-.061-.614c.01-.01.272-.353.272-.966 0-.574-.272-.936-.272-.936a.442.442 0 0 1 .071-.614.435.435 0 0 1 .613.08c.061.06.463.614.463 1.48 0 .926-.422 1.459-.473 1.519a.428.428 0 0 1-.332.151ZM165.275 156.595a.395.395 0 0 1-.232-.07.439.439 0 0 1-.141-.594s.443-.735.453-1.57c0-.604-.332-1.409-.463-1.671a.436.436 0 0 1 .191-.584.437.437 0 0 1 .584.191c.02.051.564 1.138.564 2.064-.01 1.097-.554 1.992-.584 2.023a.442.442 0 0 1-.372.211ZM166.714 157.34a.393.393 0 0 1-.212-.061.431.431 0 0 1-.161-.593c.01-.011.665-1.178.665-2.325 0-1.027-.665-2.436-.675-2.446a.447.447 0 0 1 .202-.584c.211-.11.473-.01.583.202.03.06.765 1.61.765 2.828 0 1.378-.745 2.697-.775 2.747a.472.472 0 0 1-.392.232Z" fill="#fff"/>
        <path d="M168.183 158.054a.46.46 0 0 1-.221-.06.43.43 0 0 1-.161-.594c.01-.01.855-1.489.795-3.019-.061-1.45-.896-3.322-.906-3.342a.43.43 0 0 1 .221-.573.434.434 0 0 1 .574.221c.04.081.916 2.043.976 3.664.07 1.791-.876 3.422-.916 3.492a.39.39 0 0 1-.362.211Z" fill="#fff"/>
        <path d="M160.243 192.324a6.834 6.834 0 0 0 6.833-6.834 6.834 6.834 0 1 0-6.833 6.834Z" fill="#FF560C"/>
        <path d="M134.651 188.56H84.444a1.136 1.136 0 0 1-1.137-1.137v-2.537c0-.624.503-1.137 1.137-1.137h50.207c.624 0 1.137.503 1.137 1.137v2.537c0 .624-.503 1.137-1.137 1.137ZM121.297 145.715H84.504a1.194 1.194 0 0 1-1.197-1.197v-2.416c0-.664.533-1.198 1.197-1.198h36.783c.664 0 1.197.534 1.197 1.198v2.416a1.191 1.191 0 0 1-1.187 1.197Z" fill="#fff"/>
        <path opacity=".63" d="M274.827 386.951H144.856a5.968 5.968 0 0 1-5.968-5.968V82.329a5.968 5.968 0 0 1 5.968-5.968h129.971a5.967 5.967 0 0 1 5.967 5.968v298.654a5.974 5.974 0 0 1-5.967 5.968Z" fill="#2876F9"/>
        <path d="M274.827 386.951H144.856a5.968 5.968 0 0 1-5.968-5.968V82.329a5.968 5.968 0 0 1 5.968-5.968h129.971a5.967 5.967 0 0 1 5.967 5.968v298.654a5.974 5.974 0 0 1-5.967 5.968Z" fill="#fff"/>
        <path d="M274.827 386.951H144.856a5.968 5.968 0 0 1-5.968-5.968v-26.782h141.906v26.782a5.974 5.974 0 0 1-5.967 5.968Z" fill="#E8EEFB"/>
        <path d="M275.783 386.951H144.05a5.167 5.167 0 0 1-5.162-5.163v-6.814h141.906v6.965a5.012 5.012 0 0 1-5.011 5.012Z" fill="#DAE2F5"/>
        <path d="M283.24 76.37A15.871 15.871 0 0 0 270.52 70H149.153c-5.193 0-9.812 2.506-12.721 6.37a15.844 15.844 0 0 0-3.17 9.542v290.683c0 8.776 7.115 15.892 15.891 15.892h121.356c8.776 0 15.911-7.116 15.911-15.892V85.912a15.674 15.674 0 0 0-3.18-9.541Zm-2.446 298.977c0 6.411-5.202 11.614-11.613 11.614h-118.7c-6.41 0-11.593-5.203-11.593-11.614V87.965a11.584 11.584 0 0 1 11.593-11.594h118.7c6.411 0 11.613 5.183 11.613 11.594v287.382Z" fill="#2876F9"/>
        <path d="M218.944 127.448h-18.296l1.439-37.319h15.206l1.651 37.319Z" fill="#FF560C"/>
        <path d="M211.446 143.249h-3.301a7.503 7.503 0 0 1-7.497-7.498v-8.303h18.296v8.303a7.504 7.504 0 0 1-7.498 7.498Z" fill="#E44B0C"/>
        <path d="M200.648 127.448h-18.285l4.367-37.319h15.357l-1.439 37.319Z" fill="#fff"/>
        <path d="M193.131 143.249h-3.251a7.518 7.518 0 0 1-7.517-7.518v-8.283h18.295v8.283c-.01 4.147-3.371 7.518-7.527 7.518Z" fill="#E0E6F3"/>
        <path d="M182.262 127.448h-18.296l7.679-37.319h14.864l-4.247 37.319Z" fill="#FF560C"/>
        <path d="M174.845 143.249h-3.462a7.417 7.417 0 0 1-7.417-7.417v-8.384h18.296v8.384a7.417 7.417 0 0 1-7.417 7.417Z" fill="#E44B0C"/>
        <path d="M163.936 127.448h-18.285l10.264-37.319h15.73l-7.709 37.319Z" fill="#fff"/>
        <path d="M156.509 143.249h-3.431a7.428 7.428 0 0 1-7.427-7.427v-8.374h18.295v8.374c-.01 4.096-3.331 7.427-7.437 7.427Z" fill="#E0E6F3"/>
        <path d="M145.681 127.448h-18.286l13.113-37.319h15.407l-10.234 37.319Z" fill="#FF560C"/>
        <path d="M138.133 143.249h-3.19a7.55 7.55 0 0 1-7.548-7.548v-8.253h18.296v8.253c-.01 4.167-3.392 7.548-7.558 7.548Z" fill="#E44B0C"/>
        <path d="M219.034 127.448h18.286l-4.368-37.319h-15.357l1.439 37.319Z" fill="#fff"/>
        <path d="M226.582 143.249h3.18a7.555 7.555 0 0 0 7.558-7.558v-8.243h-18.296v8.243c.01 4.177 3.392 7.558 7.558 7.558Z" fill="#E0E6F3"/>
        <path d="M237.42 127.448h18.296l-7.679-37.319h-14.863l4.246 37.319Z" fill="#FF560C"/>
        <path d="M246.568 143.249a9.148 9.148 0 0 0 9.148-9.148v-6.653H237.42v6.653a9.148 9.148 0 0 0 9.148 9.148Z" fill="#E44B0C"/>
        <path d="M255.736 127.448h18.296l-10.265-37.319h-15.73l7.699 37.319Z" fill="#fff"/>
        <path d="M263.264 143.249h3.25a7.519 7.519 0 0 0 7.518-7.518v-8.283h-18.296v8.283c0 4.147 3.371 7.518 7.528 7.518Z" fill="#E0E6F3"/>
        <path d="M273.991 127.448h18.296l-13.123-37.319h-15.397l10.224 37.319Z" fill="#FF560C"/>
        <path d="M283.139 143.249a9.148 9.148 0 0 0 9.148-9.148v-6.653h-18.296v6.653a9.148 9.148 0 0 0 9.148 9.148Z" fill="#E44B0C"/>
        <path d="M262.73 172.537h-48.194v9.511h48.194v-9.511ZM262.247 192.807h-9.953v9.954h9.953v-9.954ZM262.73 266.922h-48.194v9.511h48.194v-9.511Z" fill="#E8EEFB"/>
        <path d="M229.621 349.853h-35.132v-7.075h35.132v7.075Zm-34.961-.171h34.79v-6.733h-34.79v6.733Z" fill="#8196C7"/>
        <path d="M262.247 287.182h-9.953v9.954h9.953v-9.954Z" fill="#E8EEFB"/>
        <path d="M238.638 336.639h-51.073v.171h51.073v-.171Z" fill="#8196C7"/>
        <path d="M150.773 321.19h116.405v3.2H150.773v-3.2ZM151.035 220.102H267.44v3.2H151.035v-3.2ZM151.035 226.382H267.44v3.201H151.035v-3.201ZM150.874 233.317l35.101-.061v3.201l-35.101.06v-3.2ZM150.763 314.91h116.405v3.2H150.763v-3.2ZM150.602 328.124l35.102-.06v3.2l-35.102.061v-3.201Z" fill="#B8D2FB"/>
        <path d="M252.174 181.152a.303.303 0 0 1-.302-.302v-7.115c0-.161.131-.302.302-.302.161 0 .302.131.302.302v7.115c-.011.171-.141.302-.302.302Z" fill="#0C5DF5"/>
        <path d="m255.615 175.788 4.297-.01-1.992 3.049-2.305-3.039Z" fill="#fff"/>
        <path d="M257.92 179.119a.302.302 0 0 1-.242-.12l-2.304-3.03a.29.29 0 0 1-.03-.312.289.289 0 0 1 .261-.161l4.297-.01a.3.3 0 0 1 .262.151c.05.101.05.211-.01.302l-1.993 3.049a.336.336 0 0 1-.241.131Zm-1.711-3.039 1.691 2.224 1.459-2.234-3.15.01Z" fill="#0C5DF5"/>
        <path d="M255.293 196.33c0-.041-.1-1.047.503-1.742.333-.392.816-.603 1.43-.644.583-.03 1.056.131 1.408.483.655.655.624 1.721.624 1.762l-.503-.02s.03-.896-.473-1.389c-.241-.242-.583-.353-1.026-.332-.463.02-.826.181-1.067.463-.463.533-.382 1.368-.382 1.368l-.514.051Z" fill="#436EF6"/>
        <path d="M254.337 201.211a.717.717 0 0 1-.714-.715l.594-3.653c0-.352.322-.674.714-.674h4.961c.393 0 .715.322.715.714l.553 3.503c0 .432-.322.754-.714.754l-6.109.071Zm.584-4.529a.212.212 0 0 0-.211.211l-.594 3.654c0 .07.101.171.211.171l6.109-.071c.121 0 .211-.09.211-.211l-.553-3.503c0-.15-.101-.251-.212-.251h-4.961Z" fill="#436EF6"/>
        <path d="M149.867 153.958h52.009v59.109h-52.009v-59.109Z" fill="#E8EEFB"/>
        <path d="m169.984 165.532 2.053-2.174s1.57 1.007 3.362.936c.925-.04 2.938-.563 2.938-.563l1.439 2.033s4.388.443 6.602 2.214c2.214 1.771 10.144 22.796 10.144 22.796l-.896 2.335 1.258 3.18-2.304 1.782-2.093-3.08-2.657-.876-6.24-14.503 2.063 19.898h-20.207l.442-19.898-4.407 13.427-2.426 1.499-1.449 2.949-3.059-.896.654-2.949-1.208-2.677s5.113-18.861 7.025-20.924c1.922-2.073 8.966-4.509 8.966-4.509Z" fill="#718EE1"/>
        <path d="M191.047 207.199c0-2.788 2.265-5.042 5.062-5.042 2.798 0 5.062 2.254 5.062 5.042s-2.264 5.043-5.062 5.043c-2.797 0-5.062-2.255-5.062-5.043Z" fill="#fff"/>
        <path d="M196.099 210.551c-.03 0-.07-.01-.1-.03-.131-.091-3.231-2.305-3.201-4.238.011-.614.333-1.127.946-1.539.383-.252.775-.323 1.158-.232.573.141.996.614 1.207.896.222-.292.665-.775 1.258-.906.403-.091.785-.01 1.168.242.563.372.845.855.865 1.429.051 1.922-3.079 4.247-3.21 4.348-.02.02-.06.03-.091.03Zm-1.499-5.747c-.222 0-.443.07-.664.211-.524.342-.785.755-.795 1.258-.031 1.58 2.425 3.493 2.958 3.885.534-.412 3.009-2.415 2.979-3.995-.01-.463-.241-.846-.714-1.158-.302-.201-.604-.261-.906-.201-.694.151-1.198.966-1.198.966a.174.174 0 0 1-.141.081.16.16 0 0 1-.14-.081s-.463-.795-1.138-.956c-.09 0-.171-.01-.241-.01Z" fill="#0C5DF5"/>
        <path d="M238.386 202.761h-18.678a5.17 5.17 0 0 1-5.172-5.173 5.17 5.17 0 0 1 5.172-5.173h18.678a5.17 5.17 0 0 1 5.173 5.173 5.165 5.165 0 0 1-5.173 5.173Z" fill="#436EF6"/>
        <path d="M252.174 275.537a.303.303 0 0 1-.302-.302v-7.115c0-.161.131-.302.302-.302.161 0 .302.131.302.302v7.115c-.011.161-.141.302-.302.302Z" fill="#0C5DF5"/>
        <path d="m255.615 270.173 4.297-.01-1.992 3.049-2.305-3.039Z" fill="#fff"/>
        <path d="M257.92 273.504a.3.3 0 0 1-.242-.121l-2.304-3.029a.29.29 0 0 1-.03-.312.289.289 0 0 1 .261-.161l4.297-.01a.3.3 0 0 1 .262.151c.05.09.05.211-.01.302l-1.993 3.049a.336.336 0 0 1-.241.131Zm-1.711-3.039 1.691 2.224 1.459-2.234-3.15.01Z" fill="#0C5DF5"/>
        <path d="M255.293 290.715c0-.041-.1-1.047.503-1.742.333-.392.816-.604 1.43-.634.583-.04 1.056.131 1.408.473.655.655.624 1.721.624 1.762l-.503-.021s.03-.895-.473-1.388c-.241-.242-.583-.343-1.026-.333-.463.021-.826.182-1.067.463-.463.534-.382 1.359-.382 1.359l-.514.061Z" fill="#436EF6"/>
        <path d="M254.337 295.596a.717.717 0 0 1-.714-.715l.594-3.653c0-.352.322-.675.714-.675h4.961c.393 0 .715.323.715.715l.553 3.502c0 .433-.322.755-.714.755l-6.109.071Zm.584-4.529a.212.212 0 0 0-.211.211l-.594 3.654c0 .07.101.171.211.171l6.109-.071c.121 0 .211-.09.211-.211l-.553-3.503c0-.151-.101-.251-.212-.251h-4.961Z" fill="#436EF6"/>
        <path d="M149.867 248.343h52.009v59.109h-52.009v-59.109Z" fill="#E8EEFB"/>
        <path d="M191.047 301.584c0-2.788 2.265-5.042 5.062-5.042 2.798 0 5.062 2.264 5.062 5.042 0 2.788-2.264 5.042-5.062 5.042-2.797 0-5.062-2.254-5.062-5.042Z" fill="#fff"/>
        <path d="M196.099 304.936c-.03 0-.07-.01-.1-.031-.131-.09-3.231-2.304-3.201-4.237.011-.614.333-1.127.946-1.54.373-.251.765-.332 1.158-.231.573.141.996.614 1.207.896.222-.292.665-.775 1.258-.906.393-.091.785-.01 1.168.241.553.373.845.856.865 1.43.051 1.922-3.079 4.247-3.21 4.347-.02.021-.06.031-.091.031Zm-1.499-5.747c-.222 0-.443.07-.664.211-.524.342-.785.755-.795 1.258-.031 1.58 2.425 3.493 2.958 3.885.534-.413 3.009-2.415 2.979-3.995-.01-.463-.241-.846-.714-1.158-.302-.201-.604-.262-.906-.201-.705.161-1.198.966-1.198.966a.16.16 0 0 1-.141.08c-.06 0-.12-.03-.15-.08 0 0-.463-.795-1.138-.956-.08 0-.161-.01-.231-.01Z" fill="#0C5DF5"/>
        <path d="M238.386 297.146h-18.678a5.17 5.17 0 0 1-5.172-5.173 5.171 5.171 0 0 1 5.172-5.174h18.678a5.171 5.171 0 0 1 5.173 5.174c.01 2.848-2.304 5.173-5.173 5.173ZM167.468 254.663h16.092l2.415 9.501 3.975 32.982-7.326.694-6.752-27.687-4.157 27.687-7.93-1.308 1.731-31.804 1.952-10.065ZM183.55 252.983h-16.102v1.68h16.102v-1.68Z" fill="#436EF6"/>
        <path d="M279.043 87.573H140.639v2.526h138.404v-2.526Z" fill="#0C5DF5"/>
        <path d="M252.888 236.396h44.33c.996 0 1.812 1.51 1.812 3.372v41.607c0 1.862-.805 3.371-1.812 3.371h-44.33c-.996 0-1.811-1.509-1.811-3.371v-41.607c.01-1.872.815-3.372 1.811-3.372Z" fill="#fff"/>
        <path d="M297.228 285.149h-44.33c-1.248 0-2.224-1.661-2.224-3.784v-41.607c0-2.124.976-3.794 2.224-3.794h44.33c1.248 0 2.234 1.66 2.234 3.794v41.607c-.01 2.123-.986 3.784-2.234 3.784Zm-44.34-48.34c-.654 0-1.389 1.208-1.389 2.949v41.607c0 1.731.735 2.948 1.389 2.948h44.33c.654 0 1.389-1.207 1.389-2.948v-41.607c0-1.741-.735-2.949-1.389-2.949h-44.33Z" fill="#0C5DF5"/>
        <path d="m285.736 255.167-24.083-.101a.425.425 0 0 1-.422-.423c0-.231.191-.422.422-.422l24.083.1c.231 0 .422.191.422.423a.432.432 0 0 1-.422.423Z" fill="#0C5DF5"/>
        <path d="M280.211 272.608c-.03 0-.061 0-.091-.01h-11.321a.425.425 0 0 1-.423-.422c0-.232.191-.423.423-.423h11.321c.091-.071.322-.252.835-.715.504-1.882 5.606-21.085 5.837-21.819.262-.856 1.188-1.027 1.661-1.007l5.344-.241c.231-.051.432.171.442.402a.425.425 0 0 1-.402.443l-5.384.241c-.04 0-.715-.02-.856.423-.231.745-5.796 21.689-5.857 21.901a.377.377 0 0 1-.12.201c-.775.694-1.138 1.026-1.409 1.026Z" fill="#0C5DF5"/>
        <path d="m281.801 268.18-16.263-.091a.42.42 0 0 1-.403-.301l-3.874-12.923a.417.417 0 0 1 .282-.524.429.429 0 0 1 .523.282l3.784 12.621 15.951.091c.231 0 .422.191.422.422a.425.425 0 0 1-.422.423Z" fill="#0C5DF5"/>
        <path d="M268.638 268.059a.429.429 0 0 1-.413-.322l-3.271-12.902a.427.427 0 0 1 .302-.514.422.422 0 0 1 .514.302l3.27 12.903a.424.424 0 0 1-.302.513c-.03.02-.07.02-.1.02ZM279.094 268.059c-.02 0-.051 0-.071-.01a.424.424 0 0 1-.342-.493l2.244-12.49a.425.425 0 0 1 .836.151l-2.245 12.49a.437.437 0 0 1-.422.352ZM275.763 267.868a.419.419 0 0 1-.413-.433l.282-12.56c.01-.232.191-.433.433-.413.231.01.412.201.412.433l-.282 12.56a.425.425 0 0 1-.432.413ZM271.717 268.12a.425.425 0 0 1-.423-.373l-1.61-12.802a.42.42 0 1 1 .836-.11l1.61 12.802a.421.421 0 0 1-.363.473c-.02.01-.03.01-.05.01Z" fill="#0C5DF5"/>
        <path d="m284.548 259.323-21.687-.141a.426.426 0 0 1-.423-.422c0-.232.192-.423.423-.423l21.687.131a.427.427 0 0 1 0 .855ZM283.24 263.913l-18.839-.171a.426.426 0 0 1-.423-.423c0-.232.191-.423.423-.423l18.839.171c.231 0 .423.192.423.423a.426.426 0 0 1-.423.423ZM271.204 275.93a1.817 1.817 0 0 1-1.812-1.812c0-.996.816-1.811 1.812-1.811.996 0 1.811.815 1.811 1.811a1.823 1.823 0 0 1-1.811 1.812Zm0-2.778a.966.966 0 1 0 0 1.932.966.966 0 0 0 0-1.932ZM278.067 275.93a1.817 1.817 0 0 1-1.811-1.812c0-.996.815-1.811 1.811-1.811s1.812.815 1.812 1.811a1.824 1.824 0 0 1-1.812 1.812Zm0-2.778a.967.967 0 1 0 .001 1.933.967.967 0 0 0-.001-1.933ZM294.904 249.812a1.44 1.44 0 1 1 1.439-1.439c-.01.785-.654 1.439-1.439 1.439Zm0-2.033a.595.595 0 1 0 .593.594.594.594 0 0 0-.593-.594Z" fill="#0C5DF5"/>
        <path d="M299.03 211.295c-4.398 0-7.971-3.582-7.971-7.971 0-4.398 3.583-7.971 7.971-7.971 4.397 0 7.97 3.583 7.97 7.971 0 4.389-3.573 7.971-7.97 7.971Zm0-14.754c-3.734 0-6.783 3.039-6.783 6.783a6.787 6.787 0 0 0 6.783 6.784c3.733 0 6.782-3.04 6.782-6.784a6.769 6.769 0 0 0-6.782-6.783Z" fill="#fff"/>
        <path d="M280.432 85.087H139.25c1.157-5.274 5.867-8.938 11.835-8.706l117.895-.01c6.219-.01 10.496 4.348 11.452 8.716Z" fill="url(#d)"/>
        <path d="M268.406 83.174h-7.698a1.078 1.078 0 0 1-1.077-1.077V79.34c0-.594.483-1.077 1.077-1.077h7.698c.594 0 1.077.483 1.077 1.077v2.768c0 .583-.483 1.066-1.077 1.066Zm-7.698-4.368a.537.537 0 0 0-.534.534v2.768c0 .291.242.533.534.533h7.698a.537.537 0 0 0 .534-.533V79.34a.537.537 0 0 0-.534-.534h-7.698Z" fill="#fff"/>
        <path d="M266.585 82.269h-5.495a.632.632 0 0 1-.624-.645v-1.801c0-.352.272-.644.624-.644h3.542l1.953 3.09ZM270.047 80.336v.614c0 .11-.081.201-.192.201h-.644v-1.016h.644c.111 0 .192.1.192.201ZM156.016 79.944l-.755.795a3.864 3.864 0 0 0-2.656-1.057 3.829 3.829 0 0 0-2.687 1.097l-.765-.785a4.918 4.918 0 0 1 3.452-1.409 4.903 4.903 0 0 1 3.411 1.359Z" fill="#fff"/>
        <path d="m154.889 81.121-.755.805a2.195 2.195 0 0 0-1.529-.603c-.604 0-1.148.241-1.55.634l-.775-.795a3.324 3.324 0 0 1 2.314-.947c.896 0 1.701.343 2.295.906Z" fill="#fff"/>
        <path d="m153.742 82.329-1.137 1.198-1.158-1.178a1.655 1.655 0 0 1 2.295-.02ZM166.522 78.203h-1.509v5.334h1.509v-5.334ZM164.278 79.38h-1.509v4.157h1.509V79.38ZM162.205 80.376h-1.509v3.15h1.509v-3.15ZM160.162 81.957h-1.509v1.58h1.509v-1.58Z" fill="#fff"/>
        <path d="m80.65 373.012-4.62 15.831-5.303-2.486 2.526-17.451 7.397 4.106Z" fill="#FF9A67"/>
        <path d="M70.506 384.687c-.634-.051-2.959 3.734-2.425 5.827.311 1.228 2.445.866 5.192 1.188 2.748.322 4.962 1.348 6.854 1.298 1.892-.05 7.85-.654 7.85-.654l-.202-1.59s-2.949-.061-4.146-.906c-1.198-.846-6.18-4.68-6.18-4.68-.18.221-1.489 1.198-2.888 1.801-1.398.604-1.57.453-2.224.101-1.167-.634-.825-2.305-1.831-2.385Z" fill="#0C0C0C"/>
        <path d="m119.707 369.771.503 16.486-5.817-.715-2.989-17.381 8.303 1.61Z" fill="#FF9A67"/>
        <path d="M113.185 382.664c-.634.04-2.395 4.116-1.559 6.119.483 1.178 2.536.503 5.303.423 2.768-.081 5.102.624 6.964.302 1.872-.322 7.679-1.772 7.679-1.772l-.423-1.54s-2.929.363-4.237-.302c-1.308-.664-6.783-3.744-6.783-3.744-.141.242-1.298 1.399-2.596 2.195-1.298.795-1.489.674-2.184.412-1.248-.453-1.147-2.154-2.164-2.093Z" fill="#0C0C0C"/>
        <path d="M118.499 286.568s1.067 9.642 1.61 12.711c.544 3.06.493 31.029.715 38.115.221 7.085-.453 33.273-.453 33.273l2.959 2.516-13.868 2.476s-2.727-1.097-1.862-3.13c.866-2.023 2.667-2.265 2.103-5.113-.563-2.848-3.341-9.682-2.767-13.456.574-3.774 2.013-10.528 1.439-14.131-.584-3.603-5.152-31.29-4.8-31.612-6.25 32.629-22.301 69.344-22.301 69.344s-4.156-3.744-6.008-3.241c-1.852.504-3.603 1.027-3.603 1.027s-.815-1.278-.251-3.13c.563-1.852 2.817-4.439 3.582-7.337.765-2.889.866-2.879.866-2.879s-.07-7.699.583-10.396c.654-2.698 3.573-12.782 4.257-17.714.695-4.931 2.768-20.089 2.365-27.456-.533-9.843 2.506-23.45 2.506-23.45s4.992 1.057 8.413 0c3.422-1.057 6.974 2.526 11.453 2.154 4.488-.383 13.062 1.429 13.062 1.429Z" fill="#273976"/>
        <path d="M155.09 244.659s-4.428 2.627-5.112 2.949c-.674.322-2.798 1.54-2.798 1.54l-4.679 11.393s2.455-.503 3.582-.594c1.117-.09 2.245.061 3.07-.533.825-.594 3.804-2.456 4.247-2.657.442-.211 3.009-.946 3.22-1.178.211-.231 2.023-1.65 1.831-2.777-.04-.262 2.013-.574 1.681-1.913-.322-1.338-1.147-.956-1.147-.956l.503-.654s2.506-.232 2.536-1.147c.03-.916-.916-1.299-.916-1.299l-6.018-2.174Z" fill="#F1A57E"/>
        <path d="m155.614 240.593 6.088 4.429a.23.23 0 0 1 .05.332l-9.198 12.641a.23.23 0 0 1-.332.05l-6.088-4.428a.232.232 0 0 1-.051-.332l9.198-12.641a.233.233 0 0 1 .333-.051Z" fill="#0C5DF5"/>
        <path d="m155.684 241.127 5.495 4.046c.161.11.08.493.08.493l-8.654 11.896a.355.355 0 0 1-.494.081l-5.494-4.046a.355.355 0 0 1-.081-.494l8.655-11.896a.353.353 0 0 1 .493-.08Z" fill="#E8EEFB"/>
        <path d="M152.313 257.975a.632.632 0 0 1-.363-.121l-5.494-4.046a.608.608 0 0 1-.242-.403.597.597 0 0 1 .111-.463l8.655-11.896a.618.618 0 0 1 .865-.141l5.495 4.046c.271.202.211.634.181.765a.305.305 0 0 1-.04.101l-8.655 11.896a.664.664 0 0 1-.513.262Zm3.16-16.647c-.031 0-.051.01-.071.04l-8.654 11.907c-.021.03-.021.05-.021.07 0 .01.01.04.041.06l5.494 4.046c.041.02.091.02.121-.02l8.615-11.856c.01-.08.01-.171-.01-.201l-5.465-4.016c-.02-.03-.03-.03-.05-.03Z" fill="#0C5DF5"/>
        <path d="M158.371 242.757c.02-.01.684.493.694.503-.231.312-.583.594-.855.383-.252-.201-.03-.815.161-.886Z" fill="#0C5DF5"/>
        <path d="M158.351 243.19a.177.177 0 0 1 .251-.04c.081.06.091.171.041.251a.18.18 0 0 1-.252.041.18.18 0 0 1-.04-.252Z" fill="#0C0C0C"/>
        <path d="m135.829 256.586 5.112-2.617 5.183-4.298 1.328-.664 3.985.403 2.305 3.1s-.403 1.228-3.764-.483c-1.027-.524-2.345 3.059-2.345 3.059l-3.411 2.214-.705 3.231-4.871 3.674-2.817-7.619Z" fill="#FEB08A"/>
        <path d="M104.742 220.293s1.147 5.385 3.462 5.697c2.315.322 5.636.624 5.223.352-.413-.272-.262-1.953-.262-1.953s5.394 2.466 7.659 5.194c2.264 2.727 2.958 5.163 4.176 8.695 1.218 3.533 4.056 20.24 4.056 20.24l9.751-4.77 4.841 8.705s-13.998 11.031-17.038 11.363c-3.039.332-6.128-2.697-6.128-2.697l-1.429 6.411.553 6.331.725 3.422s-8.031 2.294-12.59.342c-4.559-1.953-5.485-3.161-10.607-3.523-5.132-.372-6.099-.03-10.496.01-4.388.04-3.784-2.828-3.784-2.828l1.892-1.892-1.168-2.345-.15-3.11s-13.737-.372-14.804-9.491c-1.067-9.118 7.276-25.815 7.276-25.815s3.894-6.814 7.437-10.518c3.542-3.703 21.405-7.82 21.405-7.82Z" fill="#FFBB38"/>
        <path d="M120.21 268.361c-.03 0-.05 0-.081-.01a.392.392 0 0 1-.302-.463c1.047-4.931 1.168-24.416 1.168-24.608 0-.211.171-.402.392-.392a.4.4 0 0 1 .393.392c0 .806-.121 19.767-1.188 24.769a.386.386 0 0 1-.382.312Z" fill="#1D1119"/>
        <path d="m109.724 273.806 7.386 3.271 4.831 1.953 1.761 5.213-1.822 4.529-5.635 3.653-.04-1.992s3.3-2.084 3.18-3.332c-.403-4.106-4.348-2.606-4.348-2.606s-.976 1.57-2.938.714c-1.138-.493-3.261-3.714-3.261-3.714l-3.995-1.872 4.881-5.817Z" fill="#FEB08A"/>
        <path d="m138.576 323.646 54.162-7.005 4.297 33.253-54.162 7.005-4.297-33.253Z" fill="#8396C6"/>
        <path d="m170.88 319.117 22.663-2.929 4.297 33.253-22.663 2.929-4.297-33.253Z" fill="#ACC3F1"/>
        <path d="m178.921 318.15 1.479 8.847 1.691-1.59 1.831 1.66 1.46-1.731 1.952 1.017-1.339-9.058-7.074.855Z" fill="#FFFDF3"/>
        <path d="M150.209 318.201a.224.224 0 0 1-.221-.222c.01-.493.322-11.956 5.756-12.59 1.007-.121 1.923.171 2.707.855 3.181 2.748 3.442 11.001 3.452 11.353a.23.23 0 0 1-.211.231c-.131.02-.221-.09-.232-.211 0-.081-.271-8.414-3.3-11.031-.695-.604-1.49-.845-2.365-.745-5.052.594-5.364 12.048-5.364 12.168 0 .101-.111.202-.222.192Z" fill="#130C5C"/>
        <path d="m146.315 313.39-.624 43.509 29.758-3.855-.966-39.493-28.168-.161ZM140.891 313.43l2.898.03-.835 38.739-3.392 1.127 1.329-39.896Z" fill="#FFBB38"/>
        <path d="M143.668 313.531h2.737l-.664 43.066-2.918-4.549.845-38.517Z" fill="#C19311"/>
        <path d="m139.612 353.366 3.503-1.318 2.697 4.619-6.2-3.301Z" fill="#FFDFA1"/>
        <path d="M154.959 317.396a.224.224 0 0 1-.221-.222c.01-.483.322-11.957 5.756-12.591 1.007-.12 1.912.171 2.707.856 3.171 2.747 3.442 11 3.452 11.353a.23.23 0 0 1-.211.231c-.131.01-.221-.09-.232-.211 0-.081-.271-8.414-3.3-11.031-.695-.604-1.49-.845-2.365-.745-5.052.594-5.364 12.048-5.364 12.168 0 .101-.101.192-.222.192ZM171.303 332.17a.225.225 0 0 1-.222-.231c.01-.282.181-6.874 3.351-7.247.594-.07 1.138.101 1.611.503 1.831 1.591 1.992 6.311 1.992 6.512a.23.23 0 0 1-.211.232.231.231 0 0 1-.232-.212c0-.05-.151-4.73-1.841-6.189-.383-.322-.795-.463-1.268-.403-2.788.322-2.959 6.753-2.959 6.814a.217.217 0 0 1-.221.221Z" fill="#130C5C"/>
        <path d="m169.099 329.342-.352 24.698 16.896-2.184-.543-22.423-16.001-.091ZM166.019 329.362l1.651.02-.473 21.991-1.922.644.744-22.655Z" fill="#436DF6"/>
        <path d="M167.599 329.423h1.55l-.382 24.446-1.661-2.586.493-21.86Z" fill="#3858D8"/>
        <path d="m165.285 352.038 1.982-.745 1.53 2.627-3.512-1.882Z" fill="#5A80F6"/>
        <path d="M174 331.707a.223.223 0 0 1-.222-.221c.01-.282.181-6.874 3.351-7.247a2.017 2.017 0 0 1 1.611.504c1.831 1.59 1.992 6.31 1.992 6.511a.23.23 0 0 1-.211.232c-.101.01-.221-.091-.232-.212 0-.05-.151-4.73-1.841-6.189a1.605 1.605 0 0 0-1.268-.403c-2.788.322-2.959 6.753-2.959 6.814a.209.209 0 0 1-.221.211Z" fill="#130C5C"/>
        <path d="M165.738 297.438h32.585v19.172h-32.585v-19.172Z" fill="#C2D5FB"/>
        <path d="M165.738 297.438h9.59v19.172h-9.59v-19.172Z" fill="#8396C6"/>
        <path d="M134.279 380.54a.748.748 0 0 0 .11.664.738.738 0 0 0 .594.302h17.43a6.29 6.29 0 0 0-1.982 4.6c0 3.361 2.516 6.089 5.615 6.089 3.1 0 5.616-2.728 5.616-6.089a6.25 6.25 0 0 0-1.983-4.6h28.229a6.287 6.287 0 0 0-1.983 4.6c0 3.361 2.516 6.089 5.616 6.089 3.099 0 5.615-2.728 5.615-6.089a6.25 6.25 0 0 0-1.983-4.6h6.25a.743.743 0 0 0 .745-.744.743.743 0 0 0-.745-.745H136l2.918-9.481c.835-2.707 2.939-4.64 5.485-5.052l39.419-6.331a.738.738 0 0 0 .614-.855.742.742 0 0 0-.856-.614l-39.419 6.33c-3.12.503-5.666 2.828-6.672 6.079l-3.21 10.447Zm57.272.966c2.274 0 4.126 2.064 4.126 4.6 0 2.536-1.852 4.599-4.126 4.599-2.275 0-4.126-2.063-4.126-4.599s1.851-4.6 4.126-4.6Zm-35.495 0c2.275 0 4.126 2.064 4.126 4.6 0 2.536-1.851 4.599-4.126 4.599-2.274 0-4.126-2.063-4.126-4.599s1.852-4.6 4.126-4.6ZM113.638 286.95c0 1.913 1.45 3.473 3.231 3.473 1.539 0 2.838-1.168 3.15-2.728h1.439c2.254 0 4.176 1.792 4.579 4.257l10.355 63.427c.262 1.63 1.107 3.029 2.385 3.935a5.182 5.182 0 0 0 3.039.997 4.8 4.8 0 0 0 .836-.071l67.486-11.101c2.083-.342 3.724-2.093 4.066-4.338l1.167-7.689a.73.73 0 0 0 .362-.755.69.69 0 0 0-.191-.372l4.338-28.483c.241-1.59-.202-3.18-1.218-4.368-.916-1.057-2.154-1.64-3.492-1.64h-86.064l-1.59-9.763c-.523-3.19-3.069-5.505-6.048-5.505h-1.439c-.322-1.56-1.61-2.728-3.15-2.728-1.791-.02-3.241 1.54-3.241 3.452Zm18.457 32.861 6.521-.372 1.842 12.751-6.24.604-2.123-12.983Zm2.365 14.453 6.209-.604 1.922 13.365-5.897.916-2.234-13.677Zm79.603 1.59-5.012.785.795-9.712 5.666-.554-1.449 9.481Zm-38.393-18.549 10.929-.624v11.021l-10.738 1.046-.191-11.443Zm-1.298 11.584-9.923.966-.734-11.856 10.466-.604.191 11.494Zm13.717-12.299 10.194-.583-.513 10.598-9.681.946V316.59Zm9.61 11.524-.503 10.377-9.097 1.419v-10.87l9.6-.926Zm-11.1 12.037-10.526 1.641-.191-11.554 10.717-1.047v10.96Zm-12.006 1.872-9.298 1.45-.755-12.138 9.852-.956.201 11.644Zm-10.768 1.681-9.812 1.53-1.388-12.742 10.446-1.016.754 12.228Zm-11.371-12.681-1.349-12.299 11.13-.634.735 11.916-10.516 1.017Zm-1.51-13.789-1.56-14.261h11.915l.846 13.617-11.201.644Zm11.845-14.261h11.15l.212 12.933-10.527.604-.835-13.537Zm12.64 0h11.17v12.218l-10.959.624-.211-12.842Zm12.66 0h10.828l-.563 11.544-10.265.594v-12.138Zm12.318 0h9.892l-.886 10.91-9.56.554.554-11.464Zm8.886 12.4-.836 10.195-9.198.896.514-10.548 9.52-.543Zm1.499-.081 6.461-.372-1.51 9.943-5.776.564.825-10.135Zm-3.26 21.588-8.846 1.379.503-10.296 9.148-.885-.805 9.802Zm-.121 1.52-.805 9.813-8.474 1.399.473-9.833 8.806-1.379Zm-10.768 11.454-8.544 1.409v-9.833l9.027-1.409-.483 9.833Zm-10.044 1.65-10.335 1.701-.161-9.914 10.496-1.64v9.853Zm-11.814 1.943-8.776 1.449-.614-9.924 9.229-1.439.161 9.914Zm-10.255 1.69-9.269 1.53-1.087-9.944 9.742-1.519.614 9.933Zm-10.738 1.772-8.091 1.328-1.429-9.964 8.433-1.318 1.087 9.954Zm-9.742-10.115-1.902-13.285 8.987-.876 1.399 12.842-8.484 1.319Zm-3.934-27.446 9.51-.543 1.348 12.359-9.037.875-1.821-12.691Zm-.212-1.479-2.143-14.896h10.124l1.57 14.352-9.551.544Zm78.506-10.598-.936 6.149-6.561.372.886-10.819h3.381c.906 0 1.741.403 2.365 1.127.724.846 1.046 2.003.865 3.171Zm-8.513 40.399-1.782.291.795-9.792 4.901-.765-1.097 7.176c-.231 1.61-1.368 2.848-2.817 3.09Zm-72.036 7.467-.936-5.726 5.868-.916 1.429 9.974-1.822.302c-.956.161-1.942-.081-2.757-.665-.926-.664-1.58-1.751-1.782-2.969Zm-8.513-52.164h6.913l2.154 14.986-6.552.373-2.515-15.359Zm-14.22-16.023c0-1.097.785-1.982 1.741-1.982.956 0 1.741.895 1.741 1.982 0 1.097-.785 1.983-1.741 1.983-.966 0-1.741-.886-1.741-1.983Z" fill="#202D51"/>
        <path d="M103.414 281.656c-.041 0-.071-.01-.111-.02l-20.097-6.069a.386.386 0 0 1-.262-.483.394.394 0 0 1 .483-.261l19.836 5.988 7.286-9.159-19.755-10.477-9.48 2.265a.38.38 0 0 1-.453-.232.392.392 0 0 1 .171-.483l7.498-4.318 4.87-18.146a.396.396 0 0 1 .483-.272.389.389 0 0 1 .272.484l-4.92 18.307a.43.43 0 0 1-.182.241l-5.293 3.05 7.004-1.671c.09-.02.191-.01.272.03l20.298 10.769c.1.051.171.151.201.262.02.111 0 .232-.08.322l-7.739 9.733a.379.379 0 0 1-.302.14ZM113.035 223.423a.367.367 0 0 1-.202-.06c-2.968-1.822-4.156-5.656-4.206-5.817a.382.382 0 0 1 .261-.484.382.382 0 0 1 .483.262c.01.04 1.158 3.714 3.865 5.385.181.11.241.352.131.533a.403.403 0 0 1-.332.181Z" fill="#1D1119"/>
        <path d="M107.147 214.446s-.03 3.885-2.405 5.857c-2.375 1.973 2.496 6.925 4.891 7.196 3.542.403 5.072-1.368 5.072-1.368l.433-2.194-7.991-9.491Z" fill="#FEB08A"/>
        <path d="M110.207 213.359s-.755-4.388 3.301-5.828c4.055-1.429 8.393-2.335 8.393-2.335s2.002 3.805 1.871 5.626c-.13 1.822-2.596 14.695-7.255 14.081-4.67-.614-9.199-7.015-9.199-7.015s-2.264-5.314-.613-6.27c1.66-.967 3.502 1.741 3.502 1.741Z" fill="#FEB08A"/>
        <path d="M110.317 213.55c1.5-.916.514-4.67 2.788-5.455 2.274-.785 7.075-1.892 9.188-.926 1.117.513 1.671 2.667 1.671 2.667s1.539-.221 1.58-2.939c.04-2.717-1.51-5.757-2.597-6.26-4.77-2.234-8.987.473-8.987.473s-2.204-3.09-4.87-1.499c-2.667 1.59-3.643 5.827-3.643 5.827s-1.621-1.459-2.255.956c-.634 2.416-.362 3.976-.362 3.976s-1.439-1.54-1.469.905c-.03 2.436.744 4.217 1.61 4.801.875.574 3.794 2.657 3.794 2.657l.201-2.234s-.966-3.714.051-4.831c1.016-1.107 1.801 2.798 3.3 1.882Z" fill="#20212C"/>
        <path d="M111.072 212.403s.866 4.539 1.248 5.072c.382.544 4.649.413 6.521.594 2.315.231 3.009 1.711 3.009 1.711s.051 3.402-.312 4.7c-.473 1.701-2.173 3.714-6.018 2.023-2.667-1.178-4.931-3.09-6.169-4.599a4.328 4.328 0 0 1-.976-2.406l-.201-2.285 1.056-4.498 1.842-.312Z" fill="#20212C"/>
        <path d="M267.531 169.93c0-8.373 6.793-15.167 15.165-15.167 8.373 0 15.166 6.794 15.166 15.167 0 8.374-6.793 15.168-15.166 15.168-8.372 0-15.165-6.794-15.165-15.168Z" fill="#fff"/>
        <path d="M282.707 185.52c-8.595 0-15.589-6.994-15.589-15.59 0-8.595 6.994-15.589 15.589-15.589 8.594 0 15.588 6.994 15.588 15.589 0 8.596-6.994 15.59-15.588 15.59Zm0-30.344c-8.132 0-14.744 6.612-14.744 14.744s6.612 14.745 14.744 14.745c8.131 0 14.743-6.602 14.743-14.735 0-8.132-6.612-14.754-14.743-14.754Z" fill="#0C5DF5"/>
        <path d="M282.374 178.445a17.842 17.842 0 0 1-3.713-.362 1.204 1.204 0 0 1-.926-1.429 1.198 1.198 0 0 1 1.429-.926c1.359.291 5.243.734 6.863-.655.343-.291.785-.815.725-2.013-.08-1.439-.976-1.811-3.824-2.244-2.405-.372-6.048-.926-5.897-5.103.04-1.167.533-2.163 1.419-2.888 2.546-2.104 7.718-1.379 8.302-1.288a1.206 1.206 0 1 1-.372 2.385c-1.792-.272-5.103-.312-6.401.765-.352.292-.523.634-.543 1.117-.061 1.751.805 2.154 3.854 2.627 2.395.372 5.686.875 5.867 4.509.111 2.093-.795 3.321-1.57 3.985-1.378 1.168-3.421 1.5-5.213 1.52Z" fill="#436DF6"/>
        <path d="M282.757 181.525a1.208 1.208 0 0 1-1.218-1.208v-3.09c0-.664.493-1.228 1.208-1.208.664 0 1.207.544 1.207 1.208v3.09c0 .654-.533 1.198-1.197 1.208ZM282.797 163.801a1.201 1.201 0 0 1-1.218-1.208l.01-3.512c0-.664.594-1.218 1.208-1.208.664 0 1.208.544 1.208 1.208l-.01 3.512a1.21 1.21 0 0 1-1.198 1.208Z" fill="#436DF6"/>
    </g>
    <defs>
        <linearGradient id="b" x1="220.583" y1="99.986" x2="128.228" y2="168.586" gradientUnits="userSpaceOnUse">
            <stop stop-color="#E4ECFB"/>
            <stop offset="1" stop-color="#A8C0EF"/>
        </linearGradient>
        <linearGradient id="c" x1="24.852" y1="112.946" x2="105.922" y2="169.443" gradientUnits="userSpaceOnUse">
            <stop stop-color="#E4ECFB"/>
            <stop offset="1" stop-color="#A8C0EF"/>
        </linearGradient>
        <linearGradient id="d" x1="89.76" y1="80.723" x2="230.946" y2="80.723" gradientUnits="userSpaceOnUse">
            <stop stop-color="#E4ECFB"/>
            <stop offset="1" stop-color="#B4C7F6"/>
        </linearGradient>
        <clipPath id="a">
            <path fill="#fff" transform="translate(68 70)" d="M0 0h239v323H0z"/>
        </clipPath>
    </defs>
</svg>
