<svg width="44" height="44" viewBox="0 0 44 44" fill="none" xmlns="http://www.w3.org/2000/svg">
<circle opacity="0.18" cx="22" cy="22" r="22" fill="#FFBB38"/>
<path d="M37.9026 20.5891C37.7886 20.4666 37.6287 20.397 37.4613 20.397H33.9813V20.1069C33.9813 18.0507 32.3085 16.3779 30.2524 16.3779C29.9194 16.3779 29.6495 16.6479 29.6495 16.9809C29.6495 17.3138 29.9194 17.5838 30.2524 17.5838C31.6436 17.5838 32.7754 18.7156 32.7754 20.1069V20.397H29.9174C29.5941 20.397 29.7096 20.6519 29.6962 20.9749L28.9853 34.3719C28.9785 34.536 28.8104 34.6958 28.9241 34.8144C29.0378 34.933 29.1949 34.9999 29.3592 34.9999H36.5043C36.8206 34.9999 37.0832 34.7555 37.1057 34.44L38.0627 21.0429C38.0746 20.876 38.0166 20.7116 37.9026 20.5891ZM35.9429 33.7941H29.7639L30.2321 21.6029H32.7754V22.7862C32.7754 23.1192 33.0453 23.3892 33.3783 23.3892C33.7113 23.3892 33.9813 23.1192 33.9813 22.7862V21.6029H36.8138L35.9429 33.7941Z" fill="#FFBB38"/>
<path d="M18.1957 22.496C17.8627 22.496 17.5928 22.226 17.5928 21.893V20.9999C17.5928 20.6669 17.8627 20.397 18.1957 20.397C18.5287 20.397 18.7986 20.6669 18.7986 20.9999V21.893C18.7986 22.226 18.5287 22.496 18.1957 22.496Z" fill="#FFBB38"/>
<path d="M22.6596 28.7479C22.3266 28.7479 22.0566 28.478 22.0566 28.145V27.2519C22.0566 26.9189 22.3266 26.6489 22.6596 26.6489C22.9926 26.6489 23.2625 26.9189 23.2625 27.2519V28.145C23.2625 28.478 22.9926 28.7479 22.6596 28.7479Z" fill="#FFBB38"/>
<path d="M18.1943 28.748C18.0851 28.748 17.9746 28.7184 17.8753 28.6563C17.5929 28.4798 17.507 28.1079 17.6835 27.8255L22.1492 20.6804C22.3257 20.398 22.6976 20.3123 22.98 20.4886C23.2624 20.6651 23.3483 21.0371 23.1718 21.3195L18.7061 28.4646C18.5917 28.6476 18.3952 28.748 18.1943 28.748Z" fill="#FFBB38"/>
<path d="M30.6871 12.5444C30.5734 12.4258 30.4163 12.3588 30.2519 12.3588H25.496V12.0687C25.496 9.27378 23.2223 7 20.4274 7C17.6326 7 15.3588 9.27378 15.3588 12.0687V12.3588H10.603C10.4387 12.3588 10.2815 12.4259 10.1678 12.5444C10.0541 12.6629 9.99367 12.8228 10.0005 12.9869L10.8936 34.4222C10.9071 34.7451 11.1728 35 11.4961 35H29.3588C29.6821 35 29.9478 34.7451 29.9612 34.4222L30.8543 12.9869C30.8612 12.8227 30.8008 12.6629 30.6871 12.5444ZM16.5647 12.0686C16.5647 9.93865 18.2976 8.20581 20.4275 8.20581C22.5574 8.20581 24.2902 9.93865 24.2902 12.0686V12.3588H16.5647V12.0686ZM28.7806 33.7941H12.0744L11.2316 13.5646H15.3589V15.6411C15.3589 15.9741 15.6288 16.244 15.9618 16.244C16.2948 16.244 16.5647 15.9741 16.5647 15.6411V13.5646H24.2902V15.6411C24.2902 15.9741 24.5602 16.244 24.8932 16.244C25.2262 16.244 25.4961 15.9741 25.4961 15.6411V13.5646H29.6234L28.7806 33.7941Z" fill="#222222"/>
</svg>
