<svg width="40" height="40" viewBox="0 0 40 40" fill="none" xmlns="http://www.w3.org/2000/svg">
<mask id="mask0_4371_444" style="mask-type:luminance" maskUnits="userSpaceOnUse" x="0" y="0" width="40" height="40">
<path d="M0 0H40V40H0V0Z" fill="white"/>
</mask>
<g mask="url(#mask0_4371_444)">
<path d="M22.5692 2.95713H2.34296C1.47935 2.95713 0.779297 3.65723 0.779297 4.5209V34.5451C0.779297 35.4088 1.47935 36.1089 2.34296 36.1089H3.73071L22.5692 2.95713Z" fill="#FFBE52"/>
<path d="M12.032 6.06993H28.4695C29.7664 6.06993 30.8177 7.12007 30.8177 8.41557V36.876C30.8177 38.1715 29.7664 39.2217 28.4695 39.2217H6.23981C4.94289 39.2217 3.8916 38.1715 3.8916 36.876V14.2015L12.032 6.06993Z" fill="white"/>
<path d="M3.8916 14.1636H10.4286C11.2882 14.1636 11.985 13.4668 11.985 12.6072V6.07019L3.8916 14.1636Z" fill="#FFE6BF"/>
<path fill-rule="evenodd" clip-rule="evenodd" d="M3.17157 14.461C3.29202 14.7518 3.57578 14.9414 3.89054 14.9414H10.4275C11.7169 14.9414 12.7621 13.8962 12.7621 12.6068V6.06983C12.7621 5.75508 12.5725 5.47131 12.2817 5.35086C11.9909 5.23041 11.6562 5.29699 11.4336 5.51956L3.34026 13.6129C3.11769 13.8355 3.05111 14.1702 3.17157 14.461ZM5.7693 13.385L11.2057 7.94859V12.6068C11.2057 13.0366 10.8573 13.385 10.4275 13.385H5.7693Z" fill="black"/>
<path fill-rule="evenodd" clip-rule="evenodd" d="M14.1631 14.1632C14.1631 14.593 14.5115 14.9414 14.9413 14.9414H18.8323C19.2621 14.9414 19.6106 14.593 19.6106 14.1632C19.6106 13.7334 19.2621 13.385 18.8323 13.385H14.9413C14.5115 13.385 14.1631 13.7334 14.1631 14.1632Z" fill="black"/>
<path fill-rule="evenodd" clip-rule="evenodd" d="M9.18359 19.7667C9.18359 20.1965 9.52993 20.5449 9.95716 20.5449H18.838C19.2653 20.5449 19.6116 20.1965 19.6116 19.7667C19.6116 19.3369 19.2653 18.9885 18.838 18.9885H9.95716C9.52993 18.9885 9.18359 19.3369 9.18359 19.7667Z" fill="black"/>
<path fill-rule="evenodd" clip-rule="evenodd" d="M9.18359 25.4477C9.18359 25.9205 9.53378 26.3037 9.96575 26.3037H24.7439C25.1758 26.3037 25.526 25.9205 25.526 25.4477C25.526 24.9749 25.1758 24.5916 24.7439 24.5916H9.96575C9.53378 24.5916 9.18359 24.9749 9.18359 25.4477Z" fill="black"/>
<path fill-rule="evenodd" clip-rule="evenodd" d="M12.2959 31.128C12.2959 31.5578 12.6475 31.9062 13.0812 31.9062H24.7402C25.1739 31.9062 25.5255 31.5578 25.5255 31.128C25.5255 30.6982 25.1739 30.3498 24.7402 30.3498H13.0812C12.6475 30.3498 12.2959 30.6982 12.2959 31.128Z" fill="black"/>
<path fill-rule="evenodd" clip-rule="evenodd" d="M3.1123 36.8688C3.1123 38.5982 4.51359 40 6.24225 40H28.4649C30.1935 40 31.5948 38.5982 31.5948 36.8688V27.632C31.5948 27.1996 31.2445 26.8492 30.8123 26.8492C30.3802 26.8492 30.0298 27.1996 30.0298 27.632V36.8688C30.0298 37.7335 29.3292 38.4344 28.4649 38.4344H6.24225C5.3779 38.4344 4.67728 37.7335 4.67728 36.8688V14.168C4.67728 13.7357 4.32695 13.3852 3.89479 13.3852C3.46264 13.3852 3.1123 13.7357 3.1123 14.168V36.8688Z" fill="black"/>
<path fill-rule="evenodd" clip-rule="evenodd" d="M11.207 6.06993C11.207 6.49973 11.5576 6.84814 11.9901 6.84814H19.7624C20.1949 6.84814 20.5456 6.49973 20.5456 6.06993C20.5456 5.64014 20.1949 5.29172 19.7624 5.29172H11.9901C11.5576 5.29172 11.207 5.64014 11.207 6.06993Z" fill="black"/>
<path fill-rule="evenodd" clip-rule="evenodd" d="M2.34477 35.3238C1.91308 35.3238 1.56318 34.9738 1.56318 34.5421V4.52418C1.56318 4.09243 1.91308 3.74247 2.34477 3.74247H22.5647C22.9964 3.74247 23.3463 3.39248 23.3463 2.96075C23.3463 2.52902 22.9964 2.17904 22.5647 2.17904H2.34477C1.04976 2.17904 0 3.22897 0 4.52418V34.5421C0 35.8373 1.04976 36.8872 2.34477 36.8872H3.73209C4.16375 36.8872 4.51368 36.5372 4.51368 36.1055C4.51368 35.6738 4.16375 35.3238 3.73209 35.3238H2.34477Z" fill="black"/>
<path d="M28.8717 0.778496C34.588 0.778496 39.2219 5.37756 39.2219 11.0509C39.2219 16.7242 34.588 21.3232 28.8717 21.3232C23.1554 21.3232 18.5215 16.7242 18.5215 11.0509C18.5215 5.37756 23.1554 0.778496 28.8717 0.778496Z" fill="#93E7F8"/>
<path fill-rule="evenodd" clip-rule="evenodd" d="M28.8725 20.5447C23.5921 20.5447 19.3115 16.294 19.3115 11.0505C19.3115 5.80698 23.5921 1.55633 28.8725 1.55633C34.153 1.55633 38.4336 5.80698 38.4336 11.0505C38.4336 16.294 34.153 20.5447 28.8725 20.5447ZM17.7441 11.0505C17.7441 17.1536 22.7265 22.1011 28.8725 22.1011C35.0186 22.1011 40.0009 17.1536 40.0009 11.0505C40.0009 4.94739 35.0186 -9.15527e-05 28.8725 -9.15527e-05C22.7265 -9.15527e-05 17.7441 4.94739 17.7441 11.0505Z" fill="black"/>
<path fill-rule="evenodd" clip-rule="evenodd" d="M34.708 11.0504C34.708 11.4802 35.0557 11.8286 35.4845 11.8286H36.1105C36.5393 11.8286 36.887 11.4802 36.887 11.0504C36.887 10.6206 36.5393 10.2722 36.1105 10.2722H35.4845C35.0557 10.2722 34.708 10.6206 34.708 11.0504Z" fill="black"/>
<path fill-rule="evenodd" clip-rule="evenodd" d="M20.8555 11.0504C20.8555 11.4802 21.2031 11.8286 21.632 11.8286H22.2579C22.6868 11.8286 23.0345 11.4802 23.0345 11.0504C23.0345 10.6206 22.6868 10.2722 22.2579 10.2722H21.632C21.2031 10.2722 20.8555 10.6206 20.8555 11.0504Z" fill="black"/>
<path fill-rule="evenodd" clip-rule="evenodd" d="M28.9501 5.13574C29.3799 5.13574 29.7283 4.78808 29.7283 4.35922V3.73327C29.7283 3.30441 29.3799 2.95675 28.9501 2.95675C28.5203 2.95675 28.1719 3.30441 28.1719 3.73327V4.35922C28.1719 4.78808 28.5203 5.13574 28.9501 5.13574Z" fill="black"/>
<path fill-rule="evenodd" clip-rule="evenodd" d="M28.9501 19.144C29.3799 19.144 29.7283 18.7964 29.7283 18.3675V17.7416C29.7283 17.3127 29.3799 16.9651 28.9501 16.9651C28.5203 16.9651 28.1719 17.3127 28.1719 17.7416V18.3675C28.1719 18.7964 28.5203 19.144 28.9501 19.144Z" fill="black"/>
<path fill-rule="evenodd" clip-rule="evenodd" d="M28.8733 11.8286C29.0793 11.8286 29.2769 11.7458 29.4225 11.5985L34.7919 6.16619C35.0953 5.85931 35.0953 5.36176 34.7919 5.05488C34.4886 4.748 33.9968 4.748 33.6935 5.05488L28.8733 9.93149L26.073 7.09847C25.7697 6.79159 25.2779 6.7916 24.9746 7.09848C24.6712 7.40536 24.6712 7.90291 24.9746 8.20979L28.3155 11.5897L28.3155 11.5897L28.3241 11.5985C28.4698 11.7458 28.6673 11.8286 28.8733 11.8286Z" fill="black"/>
</g>
</svg>
