<svg width="28" height="28" viewBox="0 0 28 28" fill="none" xmlns="http://www.w3.org/2000/svg">
<mask id="mask0_3750_352" style="mask-type:luminance" maskUnits="userSpaceOnUse" x="0" y="0" width="28" height="28">
<path d="M0 -4.3869e-05H28V28H0V-4.3869e-05Z" fill="white"/>
</mask>
<g mask="url(#mask0_3750_352)">
<path fill-rule="evenodd" clip-rule="evenodd" d="M10.5438 25.4224C10.5438 26.8459 11.6978 28 13.1214 28H14.8786C16.3022 28 17.4563 26.8459 17.4563 25.4224V24.8279C18.0653 24.6333 18.6521 24.3888 19.2116 24.0993C19.3379 24.2256 19.4825 24.3702 19.6325 24.5203C20.1163 25.0046 20.7724 25.2757 21.4558 25.2757C22.1386 25.2757 22.7946 25.0047 23.2782 24.5206C23.2784 24.5205 23.2785 24.5203 23.2786 24.5202L24.5202 23.2786C24.5204 23.2785 24.5205 23.2783 24.5206 23.2782C25.0047 22.7946 25.2758 22.1386 25.2758 21.4558C25.2758 20.7723 25.0046 20.1162 24.5203 19.6325C24.3703 19.4825 24.2257 19.3379 24.0993 19.2115C24.3889 18.652 24.6333 18.0653 24.828 17.4562H25.4224C26.8459 17.4562 28 16.3021 28 14.8786V13.1213C28 11.6978 26.8459 10.5437 25.4224 10.5437H24.828C24.6333 9.93464 24.3889 9.34791 24.0993 8.78838L24.5202 8.36746C25.0046 7.88375 25.2758 7.2276 25.2758 6.5442C25.2758 5.8614 25.0047 5.20541 24.5207 4.7218C24.3874 4.58851 24.2493 4.45044 24.1097 4.3108L23.8994 4.10053C23.6889 3.88998 23.4784 3.67945 23.2786 3.47965C23.2785 3.47955 23.2784 3.47945 23.2783 3.47935C22.7947 2.99538 22.1387 2.72416 21.4558 2.72416C20.7725 2.72416 20.1165 2.99533 19.6329 3.47931C19.4827 3.62946 19.338 3.77418 19.2116 3.90062C18.6521 3.61108 18.0653 3.36662 17.4563 3.17202V2.57755C17.4563 1.15398 16.3021 -4.3869e-05 14.8786 -4.3869e-05H13.1214C11.6978 -4.3869e-05 10.5438 1.15401 10.5438 2.57755V3.17202C9.93471 3.36662 9.34797 3.61109 8.78844 3.90064C8.662 3.77419 8.51728 3.62947 8.36712 3.47931C7.88349 2.99529 7.22748 2.72416 6.54425 2.72416C5.86138 2.72416 5.20532 2.99534 4.72176 3.47935C4.72173 3.47938 4.7217 3.47941 4.72167 3.47944C4.72159 3.47953 4.7215 3.47961 4.72142 3.4797C4.45373 3.74743 4.16674 4.03439 3.88628 4.31485L3.47969 4.72142C3.47958 4.72153 3.47947 4.72165 3.47936 4.72176C2.99541 5.20532 2.72421 5.8613 2.72421 6.5442C2.72421 7.22766 2.99547 7.88376 3.47969 8.36742C3.62973 8.51745 3.77433 8.66205 3.90068 8.78839C3.61114 9.34793 3.36669 9.93466 3.17208 10.5437H2.57764C1.15413 10.5437 0 11.6978 0 13.1213V14.8786C0 16.3021 1.15413 17.4562 2.57764 17.4562H3.17209C3.36669 18.0653 3.61114 18.652 3.90068 19.2115C3.77432 19.3379 3.6297 19.4825 3.47965 19.6325C3.47956 19.6326 3.47948 19.6327 3.47939 19.6328C2.99539 20.1164 2.72421 20.7724 2.72421 21.4558C2.72421 22.1388 2.99554 22.7949 3.47969 23.2785C3.87069 23.6695 4.30284 24.1016 4.69559 24.4944L4.72137 24.5202C4.72145 24.5202 4.72152 24.5203 4.7216 24.5204C4.72167 24.5205 4.72174 24.5205 4.7218 24.5206C5.20541 25.0047 5.86149 25.2757 6.54425 25.2757C7.22758 25.2757 7.88378 25.0046 8.36751 24.5202L8.78842 24.0993C9.34794 24.3888 9.93469 24.6333 10.5438 24.8279V25.4224ZM8.64507 23.0825C8.06502 22.5025 8.06502 22.5025 8.06501 22.5025L8.06494 22.5026L7.20703 23.3605L7.20664 23.3609C7.03139 23.5364 6.79312 23.6351 6.54425 23.6351C6.29588 23.6351 6.05756 23.5364 5.88233 23.3609L5.85569 23.3343C5.46284 22.9414 5.03054 22.5091 4.63942 22.1181L4.63912 22.1178C4.46352 21.9424 4.36484 21.704 4.36484 21.4558C4.36484 21.2069 4.46358 20.9686 4.63917 20.7932L4.63942 20.793C4.86636 20.566 5.08088 20.3515 5.23866 20.1938L5.49721 19.9352L5.49743 19.935L5.49748 19.9349C5.49749 19.9349 5.4975 19.9349 4.91745 19.3549L5.49748 19.9349C5.76229 19.6701 5.81416 19.2596 5.62351 18.9373C5.16618 18.164 4.81314 17.3221 4.58309 16.4309C4.48959 16.0687 4.16289 15.8156 3.78881 15.8156H2.57764C2.06019 15.8156 1.64063 15.396 1.64063 14.8786V13.1213C1.64063 12.6039 2.06019 12.1843 2.57764 12.1843H3.78881C4.1629 12.1843 4.4896 11.9313 4.58309 11.5691C4.81314 10.6778 5.16618 9.83591 5.62353 9.06261C5.81417 8.74026 5.76229 8.32973 5.49746 8.06494L5.45055 8.11185C5.49746 8.06493 5.49747 8.06494 5.49746 8.06494L5.49739 8.06486L5.49717 8.06464L5.23865 7.80615C5.08087 7.64839 4.86637 7.4339 4.63946 7.20698L4.63912 7.20665C4.46359 7.03131 4.36484 6.79305 4.36484 6.5442C4.36484 6.29593 4.46352 6.05759 4.63912 5.88219L4.63946 5.88186C4.77445 5.74686 4.91438 5.60694 5.0559 5.46543C5.33345 5.18789 5.61716 4.90419 5.88194 4.63937L5.88229 4.63902C6.05758 4.4635 6.29594 4.36479 6.54425 4.36479C6.79306 4.36479 7.03137 4.46355 7.20669 4.63907L7.20703 4.63941C7.43394 4.86633 7.64843 5.08083 7.80619 5.2386L8.06469 5.49713L8.06491 5.49734L8.06496 5.4974C8.06496 5.4974 8.06498 5.49742 8.64507 4.91741L8.06496 5.4974C8.32975 5.76223 8.74031 5.81412 9.06265 5.62348C9.83598 5.16612 10.6779 4.81304 11.5691 4.58306C11.9313 4.48957 12.1844 4.16286 12.1844 3.78877V2.57755C12.1844 2.06011 12.6039 1.64058 13.1214 1.64058H14.8786C15.3961 1.64058 15.8157 2.06014 15.8157 2.57755V3.78877C15.8157 4.16286 16.0688 4.48957 16.431 4.58306C17.3221 4.81304 18.1641 5.16612 18.9374 5.62348C19.2598 5.81413 19.6703 5.76224 19.9351 5.49738L19.9363 5.49621L20.1939 5.23858C20.279 5.15342 20.3807 5.05174 20.4919 4.94051C20.5867 4.84565 20.6885 4.74384 20.793 4.63941L20.7933 4.63912C20.9687 4.46354 21.207 4.36479 21.4558 4.36479C21.704 4.36479 21.9424 4.46348 22.1178 4.63907L22.1181 4.63937C22.318 4.8393 22.5287 5.04998 22.7393 5.26063C22.95 5.47129 23.1606 5.68193 23.3605 5.88182L23.3609 5.88224C23.5365 6.05757 23.6352 6.29587 23.6352 6.5442C23.6352 6.79312 23.5364 7.03133 23.3609 7.2066L23.3605 7.20698L22.5026 8.06495C22.5026 8.06496 22.5025 8.06497 23.0826 8.64503L22.5026 8.06495C22.2378 8.32974 22.1859 8.74025 22.3765 9.06257C22.8338 9.83593 23.1869 10.6778 23.417 11.5691C23.5104 11.9313 23.8371 12.1843 24.2112 12.1843H25.4224C25.9399 12.1843 26.3594 12.6039 26.3594 13.1213V14.8786C26.3594 15.396 25.9399 15.8156 25.4224 15.8156H24.2112C23.8372 15.8156 23.5105 16.0687 23.417 16.4309C23.1869 17.3221 22.8338 18.164 22.3765 18.9373C22.1859 19.2596 22.2377 19.6701 22.5025 19.9349L23.0826 19.3549C22.5025 19.9349 22.5025 19.9349 22.5025 19.9349L22.5026 19.935L22.5028 19.9352L22.7613 20.1937C22.9191 20.3515 23.1336 20.566 23.3606 20.793L23.3609 20.7933C23.5364 20.9686 23.6352 21.2069 23.6352 21.4558C23.6352 21.7041 23.5365 21.9424 23.3609 22.1177L23.3605 22.1181L23.2184 22.2603C23.1857 22.2929 23.2414 22.2372 23.2088 22.2699L22.2891 23.1895C22.2731 23.2055 22.3003 23.1783 22.2843 23.1943L22.1178 23.3609C21.9424 23.5364 21.7041 23.6351 21.4558 23.6351C21.2069 23.6351 20.9686 23.5364 20.7933 23.3608L20.793 23.3605C20.566 23.1336 20.3516 22.9191 20.1938 22.7613L19.9354 22.5028L19.9351 22.5026L19.9351 22.5026C19.9351 22.5026 19.9351 22.5025 19.355 23.0825L19.9351 22.5026C19.6703 22.2377 19.2598 22.1858 18.9374 22.3765C18.1641 22.8338 17.3221 23.1869 16.431 23.4168C16.0688 23.5103 15.8157 23.837 15.8157 24.2111V25.4224C15.8157 25.9398 15.3961 26.3594 14.8786 26.3594H13.1214C12.604 26.3594 12.1844 25.9398 12.1844 25.4224V24.2111C12.1844 23.837 11.9313 23.5103 11.569 23.4168C10.6779 23.1869 9.83599 22.8338 9.06262 22.3765C8.74029 22.1858 8.3298 22.2377 8.06501 22.5025L8.64507 23.0825Z" fill="#222222"/>
<path fill-rule="evenodd" clip-rule="evenodd" d="M7.90771 14.0001C7.90771 17.3627 10.6372 20.0923 13.9999 20.0923C17.3626 20.0923 20.0921 17.3627 20.0921 14.0001C20.0921 10.6374 17.3626 7.90789 13.9999 7.90789C10.6372 7.90789 7.90771 10.6374 7.90771 14.0001ZM13.9999 18.4517C11.5433 18.4517 9.54834 16.4566 9.54834 14.0001C9.54834 11.5435 11.5433 9.54852 13.9999 9.54852C16.4565 9.54852 18.4515 11.5435 18.4515 14.0001C18.4515 16.4566 16.4565 18.4517 13.9999 18.4517Z" fill="#222222"/>
</g>
</svg>
