<svg width="44" height="44" viewBox="0 0 44 44" fill="none" xmlns="http://www.w3.org/2000/svg">
<circle opacity="0.18" cx="22" cy="22" r="22" fill="#FFBB38"/>
<path d="M32.2389 24.0435H22.7776C22.4028 24.0435 22.0996 24.3473 22.0996 24.7214V31.5621C22.0996 31.9368 22.4028 32.2401 22.7776 32.2401H32.2389C32.613 32.2401 32.9169 31.9368 32.9169 31.5621V24.7214C32.9169 24.3473 32.6131 24.0435 32.2389 24.0435ZM23.4555 30.7757V25.3994H26.8127C26.6044 29.4012 24.5521 30.4835 23.4555 30.7757ZM25.9979 30.8841C26.5446 30.3861 27.0956 29.6749 27.5079 28.6635C27.9203 29.6743 28.4719 30.3861 29.0179 30.8841H25.9979ZM31.5609 30.7713C31.1998 30.674 30.7344 30.4928 30.2709 30.1575C29.0303 29.2607 28.3209 27.6237 28.2038 25.3994H31.5609V30.7713Z" fill="#FFBB38"/>
<path d="M17.7651 25.3999H14.5705C14.1961 25.3999 13.8926 25.0963 13.8926 24.7219C13.8926 24.3475 14.1961 24.0439 14.5705 24.0439H17.7651C18.1395 24.0439 18.443 24.3475 18.443 24.7219C18.443 25.0963 18.1395 25.3999 17.7651 25.3999Z" fill="#222222"/>
<path d="M38.555 15.9531C38.549 15.8542 38.521 15.7578 38.4743 15.6702L34.7214 8.36795C34.6055 8.14176 34.3726 8 34.1186 8H28.6432C28.2684 8 27.9652 8.30323 27.9652 8.67796C27.9652 9.05208 28.2684 9.35593 28.6432 9.35593H33.7045L36.7676 15.3152H8.78866L11.8518 9.35593H16.7769C17.151 9.35593 17.4549 9.05208 17.4549 8.67796C17.4549 8.30323 17.151 8 16.7769 8H11.4376C11.1837 8 10.9507 8.14176 10.8348 8.36795C10.8348 8.36795 7.08197 15.6702 7.08197 15.6703C7.02977 15.7698 7 15.8806 7 15.9933V18.143C7 19.4879 7.76363 20.6583 8.87981 21.2426V35.322C8.87981 35.6961 9.18305 36 9.55778 36H35.9984C36.3731 36 36.6764 35.6961 36.6764 35.322V21.2426C37.7925 20.6583 38.5562 19.4879 38.5562 18.143C38.5562 18.143 38.5562 15.9934 38.5562 15.9933C38.5562 15.9798 38.5558 15.9665 38.555 15.9531ZM17.7138 34.644H14.6222V29.1593H17.7138V34.644ZM35.3204 34.644H19.0696V28.4813C19.0696 28.1072 18.7664 27.8033 18.3917 27.8033H13.9442C13.5695 27.8033 13.2662 28.1072 13.2662 28.4813V34.644H10.2357V21.6302C10.322 21.6369 10.4095 21.64 10.4977 21.64C11.2453 21.64 11.9535 21.4089 12.5445 20.9799C13.135 21.4095 13.8431 21.6406 14.5907 21.6406C15.339 21.6406 16.0465 21.4089 16.6376 20.9799C17.2286 21.4095 17.9368 21.6406 18.685 21.6406C19.4326 21.64 20.1402 21.4089 20.7312 20.9799C21.0265 21.1944 21.3513 21.3596 21.6958 21.4712C22.0397 21.5827 22.404 21.6406 22.7781 21.6406C23.5263 21.6406 24.2339 21.4089 24.8249 20.9799C25.416 21.4095 26.1235 21.6406 26.8711 21.6406C27.6194 21.6406 28.3275 21.4089 28.9186 20.9799C29.509 21.4095 30.2172 21.6406 30.9648 21.6406C31.713 21.6406 32.4206 21.4095 33.0117 20.9799C33.6027 21.4089 34.3109 21.64 35.0585 21.64C35.1466 21.64 35.2341 21.6369 35.3204 21.6302V34.644V34.644ZM37.2002 18.143C37.2002 19.3239 36.2394 20.2841 35.0585 20.2841C34.4656 20.2841 33.9133 20.0468 33.5041 19.6148C33.3759 19.4798 33.1978 19.4027 33.0117 19.4027C32.8255 19.4027 32.6474 19.4798 32.5198 19.6148C32.1106 20.0468 31.5583 20.2847 30.9648 20.2847C30.3719 20.2847 29.8197 20.0468 29.4104 19.6148C29.3469 19.5476 29.2705 19.4946 29.1867 19.4582C29.1029 19.4219 29.0117 19.4027 28.9186 19.4027C28.7325 19.4027 28.5543 19.4798 28.4261 19.6148C28.0169 20.0468 27.4647 20.2847 26.8711 20.2847C26.2782 20.2847 25.726 20.0468 25.3168 19.6148C25.1892 19.4798 25.0111 19.4027 24.8249 19.4027C24.6388 19.4027 24.4607 19.4798 24.3325 19.6148C24.1279 19.8311 23.8875 19.9981 23.6243 20.1115C23.3611 20.2255 23.0752 20.2847 22.7781 20.2847C22.1846 20.2847 21.6323 20.0468 21.2237 19.6148C21.1596 19.5476 21.0832 19.4946 20.9994 19.4582C20.9155 19.4219 20.8243 19.4027 20.7312 19.4027C20.5451 19.4027 20.367 19.4798 20.2394 19.6148C19.8302 20.0468 19.2779 20.2847 18.685 20.2847C18.0915 20.2847 17.5393 20.0468 17.13 19.6148C17.0018 19.4798 16.8237 19.4027 16.6376 19.4027C16.4514 19.4027 16.2733 19.4798 16.1457 19.6148C15.7365 20.0468 15.1843 20.2847 14.5907 20.2847C13.9978 20.2847 13.4456 20.0468 13.0364 19.6148C12.9723 19.5476 12.8958 19.4946 12.812 19.4582C12.7282 19.4219 12.6376 19.4027 12.5445 19.4027C12.3584 19.4027 12.1803 19.4798 12.0521 19.6148C11.6428 20.0468 11.0906 20.2841 10.4977 20.2841C9.31679 20.2841 8.35593 19.3239 8.35593 18.143V16.6712H37.2002V18.143V18.143Z" fill="#222222"/>
<path d="M15.4443 8.01855H28.942V9.37449H15.4443V8.01855Z" fill="#222222"/>
</svg>
