<svg width="168" height="42" viewBox="0 0 168 42" fill="none" xmlns="http://www.w3.org/2000/svg">
<path d="M54.1741 34.3378C51.4278 34.3378 49.1172 33.7304 47.2423 32.5157C45.3674 31.2746 44.0471 29.5978 43.2812 27.4852L47.9553 24.7521C49.038 27.5776 51.1637 28.9904 54.3326 28.9904C55.8642 28.9904 56.9864 28.7131 57.6994 28.1586C58.4124 27.604 58.7689 26.9043 58.7689 26.0592C58.7689 25.0822 58.3332 24.3296 57.4618 23.8014C56.5903 23.2469 55.0323 22.6527 52.7877 22.019C51.5466 21.6493 50.4903 21.2796 49.6189 20.9099C48.7739 20.5402 47.9157 20.0517 47.0442 19.4443C46.1992 18.8105 45.5522 18.0183 45.1033 17.0677C44.6544 16.117 44.43 15.0079 44.43 13.7404C44.43 11.2317 45.3146 9.23802 47.0838 7.75923C48.8795 6.25403 51.0317 5.50143 53.5403 5.50143C55.7849 5.50143 57.7522 6.05598 59.4423 7.16507C61.1587 8.24776 62.4923 9.76615 63.4429 11.7203L58.8481 14.3742C57.739 11.9975 55.9698 10.8092 53.5403 10.8092C52.4048 10.8092 51.507 11.0733 50.8468 11.6014C50.2131 12.1032 49.8962 12.7633 49.8962 13.582C49.8962 14.4534 50.2527 15.1664 50.9657 15.7209C51.7051 16.2491 53.1046 16.83 55.1644 17.4638C56.0094 17.7278 56.6432 17.9391 57.0657 18.0975C57.5146 18.2296 58.1087 18.454 58.8481 18.7709C59.6139 19.0614 60.1949 19.3387 60.591 19.6027C61.0135 19.8668 61.4888 20.2233 62.017 20.6722C62.5451 21.1211 62.9412 21.5833 63.2053 22.0586C63.4958 22.5339 63.7334 23.1149 63.9183 23.8014C64.1295 24.4616 64.2351 25.1878 64.2351 25.98C64.2351 28.5415 63.2977 30.5748 61.4228 32.08C59.5743 33.5852 57.1581 34.3378 54.1741 34.3378Z" fill="#FFBB38"/>
<path d="M78.5744 13.4235C80.7398 13.4235 82.5223 14.1497 83.9218 15.6021C85.3478 17.0545 86.0608 19.0614 86.0608 21.6229V33.7833H80.951V22.2566C80.951 20.9363 80.5946 19.9328 79.8816 19.2462C79.1686 18.5333 78.2179 18.1768 77.0296 18.1768C75.7093 18.1768 74.653 18.5861 73.8608 19.4047C73.0686 20.2233 72.6725 21.4512 72.6725 23.0885V33.7833H67.5627V6.05598H72.6725V16.1962C73.9136 14.3478 75.8809 13.4235 78.5744 13.4235Z" fill="#FFBB38"/>
<path d="M107.298 31.3274C105.265 33.3343 102.782 34.3378 99.8511 34.3378C96.9199 34.3378 94.4377 33.3343 92.4043 31.3274C90.3974 29.2941 89.3939 26.8118 89.3939 23.8807C89.3939 20.9495 90.3974 18.4804 92.4043 16.4735C94.4377 14.4402 96.9199 13.4235 99.8511 13.4235C102.782 13.4235 105.265 14.4402 107.298 16.4735C109.331 18.4804 110.348 20.9495 110.348 23.8807C110.348 26.8118 109.331 29.2941 107.298 31.3274ZM96.0089 27.8021C97.0387 28.832 98.3195 29.3469 99.8511 29.3469C101.383 29.3469 102.663 28.832 103.693 27.8021C104.723 26.7722 105.238 25.4651 105.238 23.8807C105.238 22.2962 104.723 20.9891 103.693 19.9592C102.663 18.9294 101.383 18.4144 99.8511 18.4144C98.3195 18.4144 97.0387 18.9294 96.0089 19.9592C95.0054 20.9891 94.5037 22.2962 94.5037 23.8807C94.5037 25.4651 95.0054 26.7722 96.0089 27.8021Z" fill="#FFBB38"/>
<path d="M125.469 13.4235C128.136 13.4235 130.407 14.4402 132.282 16.4735C134.183 18.4804 135.134 20.9495 135.134 23.8807C135.134 26.8118 134.183 29.2941 132.282 31.3274C130.407 33.3343 128.136 34.3378 125.469 34.3378C122.696 34.3378 120.557 33.374 119.052 31.4462V41.7053H113.942V13.9781H119.052V16.3151C120.557 14.3874 122.696 13.4235 125.469 13.4235ZM120.597 27.9209C121.627 28.9508 122.934 29.4657 124.518 29.4657C126.103 29.4657 127.41 28.9508 128.44 27.9209C129.496 26.8646 130.024 25.5179 130.024 23.8807C130.024 22.2434 129.496 20.9099 128.44 19.88C127.41 18.8237 126.103 18.2956 124.518 18.2956C122.934 18.2956 121.627 18.8237 120.597 19.88C119.567 20.9099 119.052 22.2434 119.052 23.8807C119.052 25.5179 119.567 26.8646 120.597 27.9209Z" fill="#FFBB38"/>
<path d="M163.763 24.6773C160.964 27.45 157.557 28.8364 153.543 28.8364C149.53 28.8364 146.123 27.45 143.324 24.6773C140.551 21.8781 139.165 18.4584 139.165 14.4182C139.165 10.3779 140.551 6.97143 143.324 4.1987C146.123 1.39957 149.53 0 153.543 0C157.557 0 160.964 1.39957 163.763 4.1987C166.562 6.97143 167.962 10.3779 167.962 14.4182C167.962 18.4584 166.562 21.8781 163.763 24.6773ZM147.166 20.9539C148.883 22.6439 151.008 23.489 153.543 23.489C156.079 23.489 158.204 22.6439 159.921 20.9539C161.637 19.2375 162.495 17.0589 162.495 14.4182C162.495 11.7775 161.637 9.59892 159.921 7.88247C158.204 6.16602 156.079 5.30779 153.543 5.30779C151.008 5.30779 148.883 6.16602 147.166 7.88247C145.45 9.59892 144.592 11.7775 144.592 14.4182C144.592 17.0589 145.45 19.2375 147.166 20.9539Z" fill="#001B38"/>
<circle cx="17.9259" cy="20.5802" r="16.1046" stroke="#FFBB38" stroke-width="3"/>
<path d="M26.6036 17.1719H26.6034L25.3406 13.7785C25.255 13.5504 25.1019 13.3537 24.9018 13.2147C24.7016 13.0756 24.464 13.0007 24.2203 13H12.5762C12.3325 13.0007 12.0948 13.0756 11.8947 13.2147C11.6945 13.3538 11.5415 13.5504 11.4558 13.7786L10.1931 17.172C10.0362 17.5946 10.0212 18.0432 10.151 18.4351C10.2656 18.7811 10.4579 19.0963 10.7132 19.3565C10.9686 19.6166 11.2801 19.8147 11.624 19.9357V26.9471C11.6246 27.4753 11.8348 27.9817 12.2083 28.3553C12.5818 28.7288 13.0882 28.9389 13.6164 28.9396H23.1802C23.7084 28.9389 24.2148 28.7288 24.5883 28.3553C24.9619 27.9818 25.172 27.4754 25.1726 26.9471V19.9356C25.5165 19.8147 25.8281 19.6165 26.0834 19.3564C26.3387 19.0962 26.5311 18.7811 26.6456 18.435C26.7756 18.0431 26.7606 17.5945 26.6036 17.1719ZM21.9423 16.7793C21.9705 16.9392 21.9847 17.1013 21.9847 17.2638V17.6822C21.9857 17.8922 21.9453 18.1003 21.8656 18.2945C21.786 18.4888 21.6687 18.6655 21.5206 18.8143C21.3725 18.9631 21.1964 19.0812 21.0025 19.1618C20.8086 19.2424 20.6007 19.2839 20.3908 19.2839C20.1808 19.2839 19.9729 19.2424 19.779 19.1618C19.5851 19.0812 19.409 18.9631 19.2609 18.8143C19.1128 18.6655 18.9956 18.4888 18.9159 18.2945C18.8363 18.1003 18.7958 17.8922 18.7968 17.6822V13.7969H21.416L21.9423 16.7793ZM14.8119 17.2638C14.8118 17.1013 14.826 16.9391 14.8543 16.7791L15.3807 13.7969H17.9998V17.6822C17.9998 17.8915 17.9586 18.0988 17.8785 18.2922C17.7984 18.4856 17.681 18.6613 17.533 18.8093C17.3849 18.9573 17.2092 19.0747 17.0158 19.1548C16.8224 19.2349 16.6152 19.2762 16.4058 19.2762C16.1965 19.2762 15.9893 19.2349 15.7959 19.1548C15.6025 19.0747 15.4267 18.9573 15.2787 18.8093C15.1307 18.6613 15.0133 18.4856 14.9332 18.2922C14.8531 18.0988 14.8119 17.8915 14.8119 17.6822V17.2638ZM10.9075 18.1842C10.8344 17.9638 10.846 17.7029 10.94 17.4497L12.2027 14.0565C12.2313 13.9804 12.2824 13.9149 12.3491 13.8685C12.4158 13.8221 12.4951 13.7972 12.5763 13.7969H14.5713L14.0694 16.6407C14.0331 16.8465 14.0149 17.055 14.0149 17.264V17.6822C14.0148 18.0609 13.88 18.4272 13.6344 18.7156C13.3889 19.0039 13.0488 19.1954 12.6749 19.2558C12.301 19.3162 11.9179 19.2416 11.594 19.0452C11.2702 18.8489 11.0268 18.5436 10.9075 18.1842V18.1842ZM24.3757 26.9471C24.3753 27.2641 24.2493 27.568 24.0251 27.7921C23.801 28.0162 23.4972 28.1423 23.1802 28.1426H13.6164C13.2994 28.1423 12.9956 28.0162 12.7714 27.7921C12.5473 27.568 12.4213 27.2641 12.4209 26.9471V20.0731C12.8156 20.073 13.2041 19.9752 13.5517 19.7884C13.8994 19.6016 14.1954 19.3316 14.4134 19.0026C14.6312 19.3317 14.9272 19.6018 15.2749 19.7886C15.6226 19.9754 16.0111 20.0731 16.4058 20.0731C16.8005 20.0731 17.1891 19.9754 17.5368 19.7886C17.8844 19.6018 18.1804 19.3317 18.3983 19.0026C18.6162 19.3317 18.9121 19.6018 19.2598 19.7886C19.6075 19.9754 19.9961 20.0731 20.3908 20.0731C20.7855 20.0731 21.174 19.9754 21.5217 19.7886C21.8694 19.6018 22.1654 19.3317 22.3832 19.0026C22.6012 19.3316 22.8972 19.6016 23.2449 19.7884C23.5925 19.9752 23.981 20.073 24.3757 20.0731V26.9471ZM25.8891 18.1842C25.7698 18.5436 25.5264 18.8489 25.2026 19.0452C24.8787 19.2416 24.4956 19.3162 24.1217 19.2558C23.7478 19.1954 23.4077 19.0039 23.1621 18.7156C22.9166 18.4272 22.7817 18.0609 22.7817 17.6822V17.2638C22.7817 17.0548 22.7635 16.8463 22.7272 16.6406L22.2253 13.7969H24.2203C24.3015 13.7971 24.3807 13.8221 24.4475 13.8684C24.5142 13.9148 24.5652 13.9803 24.5938 14.0564L25.8563 17.4496C25.9506 17.7029 25.9623 17.9637 25.8891 18.1842Z" fill="#001B38"/>
<path d="M21.7301 22.74L19.7584 22.3131L18.7429 20.5698C18.7079 20.5096 18.6576 20.4596 18.5972 20.4249C18.5367 20.3901 18.4683 20.3718 18.3986 20.3718C18.3289 20.3718 18.2604 20.3901 18.1999 20.4249C18.1395 20.4596 18.0892 20.5096 18.0542 20.5698L17.0387 22.3131L15.0669 22.74C14.9987 22.7547 14.9356 22.7871 14.8839 22.8338C14.8322 22.8806 14.7936 22.94 14.7721 23.0063C14.7505 23.0727 14.7467 23.1434 14.7611 23.2117C14.7754 23.2799 14.8075 23.3431 14.8539 23.3951L16.1985 24.8997L15.9951 26.9069C15.9881 26.9763 15.9994 27.0462 16.0279 27.1098C16.0564 27.1735 16.101 27.2285 16.1574 27.2694C16.2138 27.3104 16.28 27.3358 16.3493 27.3432C16.4186 27.3506 16.4886 27.3397 16.5524 27.3116L18.3985 26.498L20.2447 27.3115C20.3085 27.3397 20.3785 27.3506 20.4478 27.3432C20.5171 27.3358 20.5833 27.3103 20.6397 27.2694C20.696 27.2284 20.7407 27.1734 20.7692 27.1098C20.7977 27.0462 20.809 26.9762 20.802 26.9068L20.5986 24.8997L21.9429 23.3952C21.9894 23.3432 22.0214 23.28 22.0358 23.2117C22.0501 23.1435 22.0463 23.0727 22.0248 23.0064C22.0032 22.9401 21.9647 22.8806 21.913 22.8339C21.8612 22.7872 21.7981 22.7548 21.73 22.7401L21.7301 22.74ZM19.8874 24.4994C19.8506 24.5407 19.8227 24.5892 19.8056 24.6418C19.7885 24.6944 19.7825 24.75 19.788 24.805L19.94 26.3064L18.5592 25.6979C18.5086 25.6756 18.4539 25.6641 18.3985 25.6641C18.3432 25.6641 18.2885 25.6756 18.2379 25.6979L16.8571 26.3064L17.0091 24.805C17.0146 24.75 17.0086 24.6944 16.9915 24.6418C16.9744 24.5892 16.9465 24.5407 16.9097 24.4994L15.9043 23.3743L17.3789 23.055C17.433 23.0433 17.4841 23.0204 17.5289 22.9879C17.5737 22.9554 17.6112 22.9139 17.6391 22.8661L18.3985 21.562L19.158 22.8661C19.1859 22.9139 19.2234 22.9553 19.2682 22.9879C19.313 23.0204 19.364 23.0432 19.4181 23.055L20.8928 23.3743L19.8874 24.4994Z" fill="#001B38"/>
</svg>
