<svg width="260" height="299" viewBox="0 0 260 299" fill="none" xmlns="http://www.w3.org/2000/svg">
<path fill-rule="evenodd" clip-rule="evenodd" d="M104 272.416C175.475 272.416 233.416 214.475 233.416 143C233.416 71.5255 175.475 13.5839 104 13.5839C32.5255 13.5839 -25.4161 71.5255 -25.4161 143C-25.4161 214.475 32.5255 272.416 104 272.416ZM104 299C190.156 299 260 229.156 260 143C260 56.8436 190.156 -13 104 -13C17.8436 -13 -52 56.8436 -52 143C-52 229.156 17.8436 299 104 299Z" fill="#FFBB38"/>
<path d="M180.849 111.983H180.847L169.644 82.0068C168.884 79.9916 167.526 78.2544 165.75 77.026C163.975 75.7976 161.866 75.1362 159.704 75.1296H56.3965C54.2344 75.1362 52.1254 75.7977 50.3499 77.0262C48.5744 78.2547 47.2164 79.9921 46.4563 82.0075L35.2534 111.984C33.8613 115.717 33.7287 119.68 34.8805 123.141C35.8966 126.198 37.6029 128.983 39.8683 131.281C42.1336 133.579 44.8978 135.329 47.9485 136.397V198.334C47.9544 203 49.8187 207.474 53.1324 210.773C56.4462 214.073 60.939 215.929 65.6254 215.935H150.476C155.163 215.929 159.656 214.073 162.97 210.773C166.283 207.474 168.148 203 168.154 198.334V136.397C171.204 135.328 173.968 133.578 176.234 131.28C178.499 128.982 180.205 126.198 181.222 123.141C182.375 119.679 182.242 115.716 180.849 111.983ZM139.493 108.515C139.744 109.928 139.87 111.36 139.87 112.794V116.491C139.879 118.345 139.52 120.184 138.813 121.9C138.107 123.616 137.066 125.177 135.752 126.491C134.438 127.806 132.876 128.849 131.156 129.561C129.436 130.273 127.591 130.64 125.728 130.64C123.865 130.64 122.021 130.273 120.301 129.561C118.58 128.849 117.018 127.806 115.704 126.491C114.39 125.177 113.35 123.616 112.643 121.9C111.937 120.184 111.577 118.345 111.586 116.491V82.1692H134.824L139.493 108.515ZM76.2318 112.794C76.2315 111.359 76.3574 109.926 76.6079 108.513L81.2781 82.1692H104.516V116.491C104.516 118.34 104.15 120.171 103.439 121.879C102.728 123.587 101.687 125.14 100.374 126.447C99.0604 127.755 97.5014 128.792 95.7856 129.5C94.0698 130.207 92.2308 130.571 90.3737 130.571C88.5166 130.571 86.6776 130.207 84.9618 129.5C83.246 128.792 81.687 127.755 80.3738 126.447C79.0606 125.14 78.0189 123.587 77.3082 121.879C76.5975 120.171 76.2318 118.34 76.2318 116.491V112.794ZM41.592 120.925C40.943 118.978 41.0464 116.674 41.8804 114.437L53.0833 84.4624C53.3369 83.7905 53.7897 83.2113 54.3818 82.8017C54.9738 82.3922 55.6769 82.1717 56.3978 82.1695H74.0972L69.6442 107.291C69.3226 109.108 69.1609 110.951 69.161 112.796V116.491C69.1605 119.836 67.9639 123.072 65.7855 125.619C63.6072 128.166 60.5893 129.858 57.2723 130.392C53.9553 130.925 50.5559 130.266 47.6828 128.531C44.8097 126.797 42.6505 124.1 41.592 120.925V120.925ZM161.083 198.334C161.08 201.134 159.961 203.818 157.973 205.798C155.984 207.778 153.288 208.892 150.476 208.895H65.6254C62.8133 208.892 60.1173 207.778 58.1289 205.798C56.1405 203.818 55.0221 201.134 55.019 198.334V137.612C58.5205 137.61 61.9673 136.746 65.0518 135.096C68.1362 133.446 70.7625 131.061 72.6962 128.155C74.629 131.062 77.2551 133.447 80.3398 135.098C83.4245 136.748 86.8718 137.612 90.3735 137.612C93.8753 137.612 97.3225 136.748 100.407 135.098C103.492 133.447 106.118 131.062 108.051 128.155C109.984 131.062 112.61 133.447 115.695 135.098C118.779 136.748 122.226 137.612 125.728 137.612C129.23 137.612 132.677 136.748 135.762 135.098C138.847 133.447 141.473 131.062 143.406 128.155C145.339 131.061 147.966 133.446 151.05 135.096C154.134 136.746 157.581 137.61 161.083 137.612V198.334ZM174.51 120.925C173.451 124.1 171.292 126.797 168.419 128.531C165.546 130.266 162.146 130.925 158.829 130.392C155.512 129.858 152.495 128.166 150.316 125.619C148.138 123.072 146.941 119.836 146.941 116.491V112.794C146.941 110.949 146.779 109.107 146.458 107.289L142.005 82.1692H159.704C160.425 82.1713 161.128 82.3917 161.72 82.8011C162.312 83.2104 162.765 83.7894 163.018 84.4611L174.219 114.436C175.055 116.674 175.159 118.978 174.51 120.925Z" fill="#001B38"/>
<path d="M137.673 161.958L120.143 158.175L111.115 142.728C110.803 142.195 110.356 141.752 109.819 141.444C109.281 141.136 108.672 140.974 108.053 140.974C107.433 140.974 106.824 141.136 106.287 141.444C105.75 141.752 105.303 142.195 104.991 142.728L95.9621 158.175L78.4307 161.958C77.8248 162.089 77.2639 162.375 76.804 162.789C76.3441 163.203 76.0012 163.731 75.8096 164.318C75.6179 164.905 75.5843 165.533 75.712 166.137C75.8397 166.742 76.1243 167.302 76.5374 167.763L88.4916 181.094L86.6837 198.88C86.6214 199.495 86.7219 200.115 86.9751 200.678C87.2283 201.242 87.6255 201.73 88.1269 202.092C88.6283 202.455 89.2164 202.681 89.8326 202.746C90.4488 202.812 91.0715 202.715 91.6385 202.466L108.053 195.257L124.467 202.465C125.034 202.715 125.656 202.811 126.273 202.746C126.889 202.68 127.477 202.455 127.978 202.092C128.48 201.729 128.877 201.241 129.13 200.678C129.383 200.114 129.484 199.494 129.421 198.879L127.614 181.094L139.566 167.764C139.979 167.303 140.263 166.742 140.391 166.138C140.519 165.533 140.485 164.906 140.294 164.319C140.102 163.731 139.759 163.204 139.299 162.79C138.839 162.376 138.278 162.089 137.672 161.959L137.673 161.958ZM121.29 177.547C120.963 177.913 120.715 178.343 120.563 178.809C120.411 179.275 120.358 179.768 120.406 180.256L121.758 193.559L109.481 188.168C109.031 187.97 108.544 187.868 108.053 187.868C107.561 187.868 107.074 187.97 106.624 188.168L94.3479 193.559L95.6991 180.256C95.748 179.768 95.6947 179.275 95.5425 178.809C95.3904 178.343 95.1427 177.913 94.8152 177.547L85.8759 167.579L98.9874 164.749C99.4684 164.645 99.9224 164.443 100.321 164.155C100.719 163.866 101.053 163.499 101.301 163.075L108.053 151.52L114.805 163.075C115.053 163.499 115.386 163.866 115.785 164.154C116.183 164.442 116.637 164.645 117.118 164.749L130.229 167.578L121.29 177.547Z" fill="#001B38"/>
</svg>
