<svg width="41" height="39" viewBox="0 0 41 39" fill="none" xmlns="http://www.w3.org/2000/svg">
<path d="M40.4189 18.9688V35.7423C40.4188 36.2504 40.2171 36.7377 39.8578 37.097C39.4986 37.4564 39.0114 37.6584 38.5033 37.6586H27.1304C26.8788 37.6586 26.6296 37.609 26.3972 37.5126C26.1648 37.4163 25.9536 37.2751 25.7757 37.0972C25.5978 36.9192 25.4567 36.708 25.3605 36.4755C25.2643 36.243 25.2148 35.9939 25.2148 35.7423V18.9688C25.2148 18.7172 25.2643 18.4681 25.3606 18.2357C25.4568 18.0032 25.5979 17.7921 25.7758 17.6142C25.9537 17.4363 26.1649 17.2952 26.3973 17.1989C26.6297 17.1027 26.8788 17.0532 27.1304 17.0532H29.7174V17.059C29.7173 17.2461 29.7541 17.4313 29.8257 17.6041C29.8973 17.7769 30.0022 17.9339 30.1344 18.0662C30.2667 18.1985 30.4237 18.3034 30.5965 18.3749C30.7693 18.4465 30.9545 18.4833 31.1416 18.4832H34.4921C34.6792 18.4833 34.8644 18.4465 35.0372 18.3749C35.21 18.3034 35.367 18.1985 35.4993 18.0662C35.6316 17.9339 35.7365 17.7769 35.808 17.6041C35.8796 17.4313 35.9164 17.2461 35.9163 17.059V17.0532H38.5033C39.0113 17.0533 39.4985 17.2551 39.8578 17.6143C40.217 17.9735 40.4188 18.4607 40.4189 18.9688ZM30.5357 29.5881V26.8509H27.7993V29.5881H30.5357Z" fill="#F8EC7D"/>
<path d="M29.7178 17.0533V16.9662C29.7177 16.7792 29.7545 16.5939 29.8261 16.4211C29.8977 16.2483 30.0026 16.0913 30.1348 15.959C30.2671 15.8268 30.4241 15.7219 30.5969 15.6503C30.7697 15.5788 30.9549 15.5419 31.142 15.542H34.4925C34.6796 15.5419 34.8648 15.5788 35.0376 15.6503C35.2104 15.7219 35.3674 15.8268 35.4997 15.959C35.632 16.0913 35.7369 16.2483 35.8084 16.4211C35.88 16.5939 35.9168 16.7792 35.9167 16.9662V17.0592C35.9168 17.2462 35.88 17.4314 35.8084 17.6042C35.7369 17.777 35.632 17.9341 35.4997 18.0663C35.3674 18.1986 35.2104 18.3035 35.0376 18.375C34.8648 18.4466 34.6796 18.4834 34.4925 18.4834H31.142C30.9549 18.4834 30.7697 18.4466 30.5969 18.375C30.4241 18.3035 30.2671 18.1986 30.1348 18.0663C30.0026 17.9341 29.8977 17.777 29.8261 17.6042C29.7545 17.4314 29.7177 17.2462 29.7178 17.0592V17.0533Z" fill="#6FE3FF"/>
<path d="M31.7303 9.57358V15.5418H31.1419C30.9548 15.5418 30.7696 15.5786 30.5968 15.6501C30.424 15.7217 30.2669 15.8266 30.1347 15.9589C30.0024 16.0911 29.8975 16.2481 29.826 16.421C29.7544 16.5938 29.7176 16.779 29.7176 16.966V17.0532H27.1307C26.8791 17.0531 26.63 17.1027 26.3976 17.1989C26.1651 17.2952 25.9539 17.4362 25.7761 17.6141C25.5982 17.792 25.4571 18.0032 25.3608 18.2356C25.2646 18.4681 25.2151 18.7172 25.2151 18.9687V31.3185L16.1553 36.5489V18.5637L31.7286 9.57275L31.7303 9.57358Z" fill="#C16752"/>
<path d="M16.1552 18.5639L8.21582 13.9801L23.7884 4.98828H23.7892L31.7286 9.57298L16.1552 18.5639Z" fill="#AF593C"/>
<path d="M30.5362 26.8506H27.7998V29.5878H30.5362V26.8506Z" fill="#6FE3FF"/>
<path d="M23.7887 4.98814L8.21615 13.9799L0.583008 9.57284L16.1555 0.581055L23.7887 4.98814Z" fill="#AF593C"/>
<path d="M16.1552 18.5637V36.5489L0.581055 27.5571V9.57358L0.582715 9.57275L8.21585 13.9798L16.1552 18.5637Z" fill="#E48E66"/>
<path d="M38.5035 16.4639H36.4358C36.3181 16.0376 36.0647 15.6612 35.7141 15.3917C35.3634 15.1222 34.9345 14.9741 34.4923 14.97H32.2854V9.57361C32.2877 9.47207 32.2628 9.37178 32.2134 9.28304C32.1641 9.19429 32.0919 9.1203 32.0045 9.06866L24.0732 4.48496L23.8011 4.98874H23.8198V4.98742L24.0944 4.48496L16.4534 0.0778735C16.3644 0.0268469 16.2636 0 16.161 0C16.0584 0 15.9576 0.0268469 15.8686 0.0778735L0.302271 9.06492C0.211059 9.115 0.134921 9.18859 0.0817652 9.27804C0.0286098 9.3675 0.00037701 9.46955 0 9.57361V27.5572C2.59068e-06 27.6591 0.0268483 27.7593 0.0778391 27.8476C0.12883 27.936 0.202169 28.0093 0.290486 28.0603L15.8647 37.0521C15.953 37.1031 16.0532 37.13 16.1552 37.1299C16.2598 37.13 16.3627 37.1032 16.4539 37.0521L24.6498 32.3245V35.7422C24.6489 36.0676 24.7126 36.3899 24.8372 36.6905C24.9617 36.991 25.1446 37.2639 25.3753 37.4933C25.6061 37.7227 25.88 37.9041 26.1813 38.0269C26.4826 38.1497 26.8052 38.2116 27.1305 38.2089H38.5035C38.8297 38.2119 39.1532 38.1504 39.4556 38.0279C39.7579 37.9054 40.033 37.7243 40.265 37.4951C40.4971 37.2658 40.6815 36.9929 40.8076 36.6921C40.9338 36.3912 40.9991 36.0684 41 35.7422V18.9687C40.9996 18.306 40.7367 17.6704 40.2688 17.201C39.801 16.7316 39.1662 16.4666 38.5035 16.4639ZM35.3563 16.9661V17.059C35.3563 17.5238 34.9572 17.8749 34.4923 17.8749H31.1417C31.0318 17.8777 30.9224 17.8586 30.8199 17.8187C30.7175 17.7788 30.624 17.7188 30.545 17.6422C30.466 17.5657 30.4031 17.4742 30.3599 17.3731C30.3167 17.2719 30.2941 17.1632 30.2935 17.0532V16.9661C30.2944 16.8556 30.317 16.7463 30.3601 16.6446C30.4032 16.5429 30.466 16.4506 30.5447 16.3732C30.6235 16.2957 30.7168 16.2345 30.8192 16.1931C30.9217 16.1517 31.0313 16.131 31.1417 16.1319H34.4923C34.717 16.1295 34.9337 16.2156 35.0954 16.3717C35.2571 16.5278 35.3508 16.7414 35.3563 16.9661ZM30.5667 9.57278L16.1552 17.8929L9.37763 13.9799L23.7886 5.65869L30.5667 9.57278ZM16.1552 1.25185L22.6264 4.98808L8.21577 13.309L1.74449 9.57278L16.1552 1.25185ZM1.16194 10.5781L15.6032 18.8991V35.5427L1.16194 27.2218V10.5781ZM16.7652 35.5427V18.8992L31.1235 10.5781V14.97H31.1417C30.6994 14.9741 30.2705 15.1221 29.9198 15.3916C29.5691 15.6612 29.3157 16.0376 29.198 16.4639H27.1305C26.4694 16.4672 25.8367 16.7329 25.3715 17.2026C24.9063 17.6724 24.6467 18.3076 24.6498 18.9687V30.9832L16.7652 35.5427ZM39.8381 35.7419C39.8373 35.9156 39.8021 36.0874 39.7344 36.2473C39.6668 36.4073 39.568 36.5522 39.4438 36.6736C39.3196 36.795 39.1725 36.8906 39.0111 36.9546C38.8497 37.0187 38.6771 37.0501 38.5035 37.0469H27.1305C26.9578 37.0498 26.7861 37.0181 26.6257 36.9538C26.4654 36.8894 26.3194 36.7936 26.1966 36.6721C26.0737 36.5506 25.9764 36.4057 25.9103 36.246C25.8442 36.0863 25.8107 35.915 25.8117 35.7422V18.9687C25.81 18.7939 25.8428 18.6205 25.9081 18.4584C25.9735 18.2962 26.0702 18.1486 26.1927 18.0238C26.3152 17.8991 26.4611 17.7998 26.622 17.7315C26.7829 17.6632 26.9557 17.6273 27.1305 17.6259H29.221C29.3455 18.0371 29.6001 18.3969 29.9464 18.6512C30.2927 18.9056 30.7121 19.0409 31.1417 19.0368H34.4923C34.9219 19.0409 35.3414 18.9056 35.6876 18.6513C36.0339 18.3969 36.2884 18.0371 36.413 17.6259H38.5035C38.8582 17.6282 39.1976 17.7706 39.4476 18.0222C39.6976 18.2738 39.838 18.6141 39.8381 18.9687V35.7419Z" fill="#63316D"/>
<path d="M27.7995 24.8461H28.4079C28.5619 24.8461 28.7097 24.7849 28.8187 24.676C28.9276 24.567 28.9888 24.4192 28.9888 24.2652C28.9888 24.1111 28.9276 23.9633 28.8187 23.8543C28.7097 23.7454 28.5619 23.6842 28.4079 23.6842H28.3846V22.1073H29.9864C30.0229 22.2241 30.0968 22.3257 30.1965 22.3965C30.2963 22.4673 30.4166 22.5035 30.5389 22.4994C30.6933 22.4999 30.8415 22.4391 30.9511 22.3304C31.0607 22.2218 31.1227 22.074 31.1235 21.9197V21.5288C31.1221 21.3737 31.0596 21.2255 30.9496 21.1163C30.8396 21.007 30.6909 20.9456 30.5359 20.9453H27.7995C27.7233 20.9457 27.6479 20.9611 27.5776 20.9906C27.5074 21.0201 27.4436 21.0632 27.3901 21.1174C27.3365 21.1716 27.2941 21.2358 27.2654 21.3064C27.2367 21.377 27.2222 21.4526 27.2227 21.5288V24.266C27.2222 24.342 27.2368 24.4174 27.2656 24.4878C27.2944 24.5581 27.3368 24.6221 27.3904 24.676C27.444 24.7299 27.5078 24.7727 27.578 24.8019C27.6482 24.8311 27.7235 24.8461 27.7995 24.8461Z" fill="#63316D"/>
<path d="M31.1235 26.8383C31.1235 26.6842 31.0623 26.5364 30.9533 26.4275C30.8443 26.3185 30.6966 26.2573 30.5425 26.2573H27.8036C27.6495 26.2573 27.5018 26.3185 27.3928 26.4275C27.2839 26.5364 27.2227 26.6842 27.2227 26.8383V29.5772C27.2227 29.7312 27.2839 29.879 27.3928 29.988C27.5018 30.0969 27.6495 30.1581 27.8036 30.1581H30.5425C30.6966 30.1581 30.8443 30.0969 30.9533 29.988C31.0623 29.879 31.1235 29.7312 31.1235 29.5772V26.8383ZM28.3846 27.4193H29.9615V28.9962H28.3846V27.4193Z" fill="#63316D"/>
<path d="M28.4079 34.3077H28.3846V32.7308H29.9553C29.9593 32.883 30.0225 33.0277 30.1315 33.134C30.2405 33.2403 30.3867 33.2998 30.539 33.2999C30.6913 33.3 30.8376 33.2407 30.9467 33.1346C31.0559 33.0284 31.1193 32.8838 31.1235 32.7316V32.1722C31.1229 32.0151 31.0613 31.8643 30.9517 31.7517C30.8421 31.6392 30.693 31.5736 30.5359 31.5688H27.7995C27.6436 31.5741 27.4959 31.6402 27.3881 31.753C27.2803 31.8657 27.2209 32.0162 27.2227 32.1722V34.9086C27.2226 34.9836 27.2376 35.0579 27.2668 35.1271C27.2959 35.1962 27.3387 35.2588 27.3925 35.3111C27.4462 35.3634 27.51 35.4044 27.5799 35.4317C27.6498 35.4589 27.7245 35.4718 27.7995 35.4697H28.4079C28.562 35.4697 28.7097 35.4084 28.8187 35.2995C28.9276 35.1905 28.9888 35.0428 28.9888 34.8887C28.9888 34.7346 28.9276 34.5868 28.8187 34.4779C28.7097 34.3689 28.562 34.3077 28.4079 34.3077Z" fill="#63316D"/>
<path d="M31.8733 21.6584L30.1719 23.3598L29.6539 22.8423C29.545 22.7334 29.3972 22.6721 29.2431 22.6721C29.089 22.6721 28.9412 22.7334 28.8323 22.8423C28.7233 22.9513 28.6621 23.0991 28.6621 23.2531C28.6621 23.4072 28.7233 23.555 28.8323 23.664L29.7611 24.5919C29.815 24.6458 29.8791 24.6886 29.9496 24.7178C30.0201 24.747 30.0956 24.7621 30.1719 24.7621C30.2482 24.7621 30.3238 24.747 30.3943 24.7178C30.4648 24.6886 30.5288 24.6458 30.5827 24.5919L32.695 22.4796C32.7489 22.4257 32.7917 22.3616 32.8209 22.2911C32.8501 22.2206 32.8652 22.1451 32.8652 22.0688C32.8652 21.9925 32.8501 21.9169 32.8209 21.8465C32.7917 21.776 32.7489 21.7119 32.695 21.658C32.641 21.604 32.577 21.5612 32.5065 21.532C32.436 21.5028 32.3605 21.4878 32.2842 21.4878C32.2079 21.4878 32.1323 21.5028 32.0618 21.532C31.9913 21.5612 31.9273 21.604 31.8733 21.658V21.6584Z" fill="#63316D"/>
<path d="M31.8733 32.3859L30.1719 34.0873L29.6539 33.5699C29.545 33.4609 29.3972 33.3997 29.2431 33.3997C29.089 33.3997 28.9412 33.4609 28.8323 33.5699C28.7233 33.6788 28.6621 33.8266 28.6621 33.9807C28.6621 34.1348 28.7233 34.2826 28.8323 34.3915L29.7611 35.3194C29.815 35.3734 29.8791 35.4162 29.9496 35.4454C30.0201 35.4746 30.0956 35.4896 30.1719 35.4896C30.2482 35.4896 30.3238 35.4746 30.3943 35.4454C30.4648 35.4162 30.5288 35.3734 30.5827 35.3194L32.695 33.2072C32.7489 33.1532 32.7917 33.0892 32.8209 33.0187C32.8501 32.9482 32.8652 32.8726 32.8652 32.7963C32.8652 32.72 32.8501 32.6445 32.8209 32.574C32.7917 32.5035 32.7489 32.4395 32.695 32.3855C32.641 32.3316 32.577 32.2888 32.5065 32.2596C32.436 32.2304 32.3605 32.2153 32.2842 32.2153C32.2079 32.2153 32.1323 32.2304 32.0618 32.2596C31.9913 32.2888 31.9273 32.3316 31.8733 32.3855V32.3859Z" fill="#63316D"/>
<path d="M37.8348 22.3569H34.1855C34.0314 22.3569 33.8836 22.4181 33.7747 22.5271C33.6657 22.6361 33.6045 22.7838 33.6045 22.9379C33.6045 23.092 33.6657 23.2398 33.7747 23.3487C33.8836 23.4577 34.0314 23.5189 34.1855 23.5189H37.8348C37.9889 23.5189 38.1367 23.4577 38.2456 23.3487C38.3546 23.2398 38.4158 23.092 38.4158 22.9379C38.4158 22.7838 38.3546 22.6361 38.2456 22.5271C38.1367 22.4181 37.9889 22.3569 37.8348 22.3569Z" fill="#63316D"/>
<path d="M37.8348 27.6685H34.1855C34.0314 27.6685 33.8836 27.7297 33.7747 27.8386C33.6657 27.9476 33.6045 28.0953 33.6045 28.2494C33.6045 28.4035 33.6657 28.5513 33.7747 28.6602C33.8836 28.7692 34.0314 28.8304 34.1855 28.8304H37.8348C37.9889 28.8304 38.1367 28.7692 38.2456 28.6602C38.3546 28.5513 38.4158 28.4035 38.4158 28.2494C38.4158 28.0953 38.3546 27.9476 38.2456 27.8386C38.1367 27.7297 37.9889 27.6685 37.8348 27.6685Z" fill="#63316D"/>
<path d="M37.8348 32.98H34.1855C34.0314 32.98 33.8836 33.0412 33.7747 33.1501C33.6657 33.2591 33.6045 33.4069 33.6045 33.561C33.6045 33.715 33.6657 33.8628 33.7747 33.9718C33.8836 34.0807 34.0314 34.1419 34.1855 34.1419H37.8348C37.9889 34.1419 38.1367 34.0807 38.2456 33.9718C38.3546 33.8628 38.4158 33.715 38.4158 33.561C38.4158 33.4069 38.3546 33.2591 38.2456 33.1501C38.1367 33.0412 37.9889 32.98 37.8348 32.98Z" fill="#63316D"/>
</svg>
