<svg width="44" height="44" viewBox="0 0 44 44" fill="none" xmlns="http://www.w3.org/2000/svg">
<circle opacity="0.18" cx="22" cy="22" r="22" fill="#FFBB38"/>
<path d="M31.2024 17.6061H11.3634C8.95739 17.6061 7 15.6757 7 13.303C7 10.9304 8.95739 9 11.3634 9H31.2024C31.5706 9 31.8691 9.29848 31.8691 9.66667V13.303C31.8691 13.6712 31.5706 13.9697 31.2024 13.9697C30.8342 13.9697 30.5358 13.6712 30.5358 13.303V10.3333H11.3634C9.69261 10.3333 8.33333 11.6655 8.33333 13.303C8.33333 14.9405 9.69261 16.2727 11.3634 16.2727H31.2024C31.5706 16.2727 31.8691 16.5712 31.8691 16.9394C31.8691 17.3076 31.5706 17.6061 31.2024 17.6061Z" fill="#222222"/>
<path d="M33.6665 17.6064H11.363C10.9948 17.6064 10.6963 17.3079 10.6963 16.9397V13.3034C10.6963 12.9352 10.9948 12.6367 11.363 12.6367H33.6665C34.0347 12.6367 34.3331 12.9352 34.3331 13.3034V16.9397C34.3331 17.3079 34.0347 17.6064 33.6665 17.6064ZM12.0296 16.2731H32.9998V13.9701H12.0296V16.2731Z" fill="#FFBB38"/>
<path d="M37.3636 22.9397H36.7981V16.9397C36.7981 16.5716 36.4996 16.2731 36.1314 16.2731H11.3634C9.69261 16.2731 8.33333 14.9409 8.33333 13.3034C8.33333 12.9352 8.03485 12.6367 7.66667 12.6367C7.29848 12.6367 7 12.9352 7 13.3034V32.6973C7 35.07 8.95739 37.0004 11.3634 37.0004H36.1314C36.4996 37.0004 36.7981 36.7019 36.7981 36.3337V30.3337H37.3636C37.7318 30.3337 38.0303 30.0352 38.0303 29.667V23.6064C38.0303 23.2382 37.7318 22.9397 37.3636 22.9397ZM36.697 29.0004H31.7682C30.4649 29.0004 29.4046 27.9401 29.4046 26.6367C29.4046 25.3334 30.4649 24.2731 31.7682 24.2731H36.697V29.0004ZM35.4647 22.9397H33.1013V17.6064H35.4647V22.9397ZM8.33333 32.6973V16.3969C9.11879 17.1453 10.1876 17.6064 11.3634 17.6064H31.768V22.9397C29.7296 22.9399 28.0713 24.5982 28.0713 26.6367C28.0713 28.6752 29.7296 30.3336 31.768 30.3337V35.667H11.3634C9.69261 35.667 8.33333 34.3348 8.33333 32.6973ZM35.4647 35.667H33.1013V30.3337H35.4647V35.667Z" fill="#222222"/>
</svg>
