<svg width="32" height="28" viewBox="0 0 32 28" fill="none" xmlns="http://www.w3.org/2000/svg">
<path d="M24.2024 8.60606H4.36339C1.95739 8.60606 0 6.6757 0 4.30303C0 1.93036 1.95739 0 4.36339 0H24.2024C24.5706 0 24.8691 0.298485 24.8691 0.666667V4.30303C24.8691 4.67121 24.5706 4.9697 24.2024 4.9697C23.8342 4.9697 23.5358 4.67121 23.5358 4.30303V1.33333H4.36339C2.69261 1.33333 1.33333 2.66552 1.33333 4.30303C1.33333 5.94055 2.69261 7.27273 4.36339 7.27273H24.2024C24.5706 7.27273 24.8691 7.57121 24.8691 7.93939C24.8691 8.30758 24.5706 8.60606 24.2024 8.60606Z" fill="#797979"/>
<path d="M26.6665 8.60642H4.36296C3.99477 8.60642 3.69629 8.30793 3.69629 7.93975V4.30339C3.69629 3.9352 3.99477 3.63672 4.36296 3.63672H26.6665C27.0347 3.63672 27.3331 3.9352 27.3331 4.30339V7.93975C27.3331 8.30793 27.0347 8.60642 26.6665 8.60642ZM5.02962 7.27308H25.9998V4.97005H5.02962V7.27308Z" fill="#FFBB38"/>
<path d="M30.3636 13.9393H29.7981V7.93926C29.7981 7.57108 29.4996 7.27259 29.1314 7.27259H4.36339C2.69261 7.27259 1.33333 5.94041 1.33333 4.3029C1.33333 3.93472 1.03485 3.63623 0.666667 3.63623C0.298485 3.63623 0 3.93472 0 4.3029V23.6968C0 26.0695 1.95739 27.9999 4.36339 27.9999H29.1314C29.4996 27.9999 29.7981 27.7014 29.7981 27.3332V21.3332H30.3636C30.7318 21.3332 31.0303 21.0347 31.0303 20.6665V14.6059C31.0303 14.2377 30.7318 13.9393 30.3636 13.9393ZM29.697 19.9999H24.7682C23.4649 19.9999 22.4046 18.9396 22.4046 17.6362C22.4046 16.3329 23.4649 15.2726 24.7682 15.2726H29.697V19.9999ZM28.4647 13.9393H26.1013V8.60593H28.4647V13.9393ZM1.33333 23.6968V7.39641C2.11879 8.14478 3.18758 8.60593 4.36339 8.60593H24.768V13.9393C22.7296 13.9394 21.0713 15.5977 21.0713 17.6362C21.0713 19.6747 22.7296 21.3331 24.768 21.3332V26.6665H4.36339C2.69261 26.6665 1.33333 25.3344 1.33333 23.6968ZM28.4647 26.6665H26.1013V21.3332H28.4647V26.6665Z" fill="#797979"/>
</svg>
